<svg width="274" height="258" viewBox="0 0 274 258" fill="none" xmlns="http://www.w3.org/2000/svg">
<g filter="url(#filter0_d)">
<rect x="18" y="15" width="237" height="228" rx="41.5" fill="#39304D"/>
</g>
<path d="M178.667 82.2363L172.169 62.7423C171.226 59.904 169.413 57.4351 166.987 55.6862C164.561 53.9373 161.646 52.9973 158.655 53H115.345C112.354 52.9973 109.439 53.9373 107.013 55.6862C104.587 57.4351 102.774 59.904 101.831 62.7423L95.333 82.2363C93.6051 82.9593 92.1294 84.177 91.0916 85.7363C90.0537 87.2956 89.5 89.1269 89.5 91V114.75C89.5 118.256 91.419 121.286 94.25 122.934V133.75C94.25 135.01 94.7504 136.218 95.6412 137.109C96.532 138 97.7402 138.5 99 138.5H103.75C105.01 138.5 106.218 138 107.109 137.109C108 136.218 108.5 135.01 108.5 133.75V124.25H165.5V133.75C165.5 135.01 166 136.218 166.891 137.109C167.782 138 168.99 138.5 170.25 138.5H175C176.26 138.5 177.468 138 178.359 137.109C179.25 136.218 179.75 135.01 179.75 133.75V122.934C181.191 122.108 182.389 120.916 183.223 119.479C184.057 118.042 184.497 116.411 184.5 114.75V91C184.5 89.1269 183.946 87.2956 182.908 85.7363C181.871 84.177 180.395 82.9593 178.667 82.2363ZM115.345 62.5H158.651C160.698 62.5 162.512 63.8015 163.158 65.749L168.412 81.5H105.588L110.837 65.749C111.152 64.8028 111.757 63.9798 112.566 63.3966C113.375 62.8135 114.347 62.4998 115.345 62.5V62.5ZM106.125 110C105.189 110 104.262 109.815 103.398 109.457C102.533 109.098 101.747 108.573 101.086 107.911C100.424 107.249 99.8995 106.463 99.5416 105.598C99.1837 104.733 98.9997 103.806 99 102.87C99.0003 101.934 99.185 101.008 99.5434 100.143C99.9019 99.2783 100.427 98.4928 101.089 97.8311C101.751 97.1695 102.537 96.6448 103.402 96.2869C104.267 95.929 105.194 95.7449 106.13 95.7453C108.02 95.7459 109.833 96.4974 111.169 97.8345C112.505 99.1716 113.255 100.985 113.255 102.875C113.254 104.765 112.503 106.578 111.166 107.914C109.828 109.25 108.015 110.001 106.125 110V110ZM167.875 110C166.939 110 166.012 109.815 165.148 109.457C164.283 109.098 163.497 108.573 162.836 107.911C162.174 107.249 161.65 106.463 161.292 105.598C160.934 104.733 160.75 103.806 160.75 102.87C160.75 101.934 160.935 101.008 161.293 100.143C161.652 99.2783 162.177 98.4928 162.839 97.8311C163.501 97.1695 164.287 96.6448 165.152 96.2869C166.017 95.929 166.944 95.7449 167.88 95.7453C169.77 95.7459 171.583 96.4974 172.919 97.8345C174.255 99.1716 175.005 100.985 175.005 102.875C175.004 104.765 174.253 106.578 172.916 107.914C171.578 109.25 169.765 110.001 167.875 110V110Z" fill="#3FD0CB"/>
<path d="M60.2934 193.38H54.8934L53.8534 196H49.6934L55.4934 180.92H59.7734L65.4534 196H61.2734L60.2934 193.38ZM59.2334 190.38L57.6334 185.58H57.5934L55.9734 190.38H59.2334ZM77.8584 185.74V195C77.8584 197.187 77.3384 198.753 76.2984 199.7C75.2718 200.647 73.8118 201.12 71.9184 201.12C71.6651 201.12 71.3984 201.107 71.1184 201.08C70.8384 201.053 70.5584 201.007 70.2784 200.94C69.2918 200.727 68.3718 200.313 67.5184 199.7C66.6784 199.087 66.1984 198.253 66.0784 197.2H70.1584C70.2118 197.387 70.2984 197.54 70.4184 197.66C70.5384 197.793 70.6784 197.9 70.8384 197.98C70.9318 198.033 71.0318 198.073 71.1384 198.1C71.2451 198.14 71.3518 198.167 71.4584 198.18C71.5251 198.193 71.5918 198.2 71.6584 198.2C71.7384 198.213 71.8118 198.22 71.8784 198.22C72.8651 198.22 73.4984 197.933 73.7784 197.36C74.0718 196.8 74.2184 196.113 74.2184 195.3V194.8C73.7518 195.28 73.2584 195.633 72.7384 195.86C72.2318 196.087 71.6384 196.2 70.9584 196.2C69.4651 196.2 68.2451 195.7 67.2984 194.7C66.3651 193.7 65.8984 192.46 65.8984 190.98C65.8984 189.473 66.3784 188.173 67.3384 187.08C68.3118 185.973 69.5851 185.42 71.1584 185.42C71.7584 185.42 72.3184 185.533 72.8384 185.76C73.3718 185.973 73.8184 186.333 74.1784 186.84L74.2184 186.82V185.74H77.8584ZM71.9984 188.48C71.2651 188.493 70.6918 188.733 70.2784 189.2C69.8651 189.653 69.6584 190.193 69.6584 190.82C69.6584 191.473 69.8651 192.02 70.2784 192.46C70.6918 192.9 71.2651 193.12 71.9984 193.12C72.7451 193.12 73.3184 192.9 73.7184 192.46C74.1318 192.02 74.3384 191.473 74.3384 190.82C74.3384 190.193 74.1318 189.653 73.7184 189.2C73.3184 188.733 72.7451 188.5 71.9984 188.5V188.48ZM91.3936 185.74V195C91.3936 197.187 90.8736 198.753 89.8336 199.7C88.8069 200.647 87.3469 201.12 85.4536 201.12C85.2003 201.12 84.9336 201.107 84.6536 201.08C84.3736 201.053 84.0936 201.007 83.8136 200.94C82.8269 200.727 81.9069 200.313 81.0536 199.7C80.2136 199.087 79.7336 198.253 79.6136 197.2H83.6936C83.7469 197.387 83.8336 197.54 83.9536 197.66C84.0736 197.793 84.2136 197.9 84.3736 197.98C84.4669 198.033 84.5669 198.073 84.6736 198.1C84.7803 198.14 84.8869 198.167 84.9936 198.18C85.0603 198.193 85.1269 198.2 85.1936 198.2C85.2736 198.213 85.3469 198.22 85.4136 198.22C86.4003 198.22 87.0336 197.933 87.3136 197.36C87.6069 196.8 87.7536 196.113 87.7536 195.3V194.8C87.2869 195.28 86.7936 195.633 86.2736 195.86C85.7669 196.087 85.1736 196.2 84.4936 196.2C83.0003 196.2 81.7803 195.7 80.8336 194.7C79.9003 193.7 79.4336 192.46 79.4336 190.98C79.4336 189.473 79.9136 188.173 80.8736 187.08C81.8469 185.973 83.1203 185.42 84.6936 185.42C85.2936 185.42 85.8536 185.533 86.3736 185.76C86.9069 185.973 87.3536 186.333 87.7136 186.84L87.7536 186.82V185.74H91.3936ZM85.5336 188.48C84.8003 188.493 84.2269 188.733 83.8136 189.2C83.4003 189.653 83.1936 190.193 83.1936 190.82C83.1936 191.473 83.4003 192.02 83.8136 192.46C84.2269 192.9 84.8003 193.12 85.5336 193.12C86.2803 193.12 86.8536 192.9 87.2536 192.46C87.6669 192.02 87.8736 191.473 87.8736 190.82C87.8736 190.193 87.6669 189.653 87.2536 189.2C86.8536 188.733 86.2803 188.5 85.5336 188.5V188.48ZM97.3088 185.74V196H93.6688V185.74H97.3088ZM95.4888 179.76C96.0488 179.773 96.5288 179.98 96.9288 180.38C97.3288 180.78 97.5288 181.26 97.5288 181.82C97.5288 182.38 97.3288 182.86 96.9288 183.26C96.5288 183.66 96.0488 183.86 95.4888 183.86C94.9288 183.86 94.4488 183.66 94.0488 183.26C93.6488 182.86 93.4488 182.38 93.4488 181.82C93.4488 181.26 93.6488 180.78 94.0488 180.38C94.4488 179.98 94.9288 179.78 95.4888 179.78V179.76ZM99.6439 185.74H103.284V191.22C103.284 191.887 103.397 192.427 103.624 192.84C103.864 193.253 104.357 193.46 105.104 193.46C105.851 193.46 106.337 193.253 106.564 192.84C106.804 192.427 106.924 191.893 106.924 191.24V185.74H110.564V191.92C110.564 193.627 110.037 194.793 108.984 195.42C107.944 196.033 106.651 196.34 105.104 196.34C103.571 196.34 102.277 196.033 101.224 195.42C100.171 194.793 99.6439 193.633 99.6439 191.94V185.74ZM116.528 185.74V187.06H116.568C116.994 186.447 117.468 186.02 117.988 185.78C118.521 185.54 119.141 185.42 119.848 185.42C121.234 185.42 122.221 185.813 122.808 186.6C123.408 187.387 123.708 188.413 123.708 189.68V196H120.068V191C120.068 190.973 120.068 190.94 120.068 190.9C120.068 190.86 120.068 190.82 120.068 190.78C120.068 190.66 120.068 190.533 120.068 190.4C120.068 190.267 120.061 190.133 120.048 190C120.021 189.587 119.901 189.207 119.688 188.86C119.474 188.5 119.054 188.32 118.428 188.32C117.694 188.32 117.194 188.56 116.928 189.04C116.661 189.507 116.528 190.06 116.528 190.7V196H112.888V185.74H116.528ZM137.37 185.74V195C137.37 197.187 136.85 198.753 135.81 199.7C134.783 200.647 133.323 201.12 131.43 201.12C131.177 201.12 130.91 201.107 130.63 201.08C130.35 201.053 130.07 201.007 129.79 200.94C128.803 200.727 127.883 200.313 127.03 199.7C126.19 199.087 125.71 198.253 125.59 197.2H129.67C129.723 197.387 129.81 197.54 129.93 197.66C130.05 197.793 130.19 197.9 130.35 197.98C130.443 198.033 130.543 198.073 130.65 198.1C130.757 198.14 130.863 198.167 130.97 198.18C131.037 198.193 131.103 198.2 131.17 198.2C131.25 198.213 131.323 198.22 131.39 198.22C132.377 198.22 133.01 197.933 133.29 197.36C133.583 196.8 133.73 196.113 133.73 195.3V194.8C133.263 195.28 132.77 195.633 132.25 195.86C131.743 196.087 131.15 196.2 130.47 196.2C128.977 196.2 127.757 195.7 126.81 194.7C125.877 193.7 125.41 192.46 125.41 190.98C125.41 189.473 125.89 188.173 126.85 187.08C127.823 185.973 129.097 185.42 130.67 185.42C131.27 185.42 131.83 185.533 132.35 185.76C132.883 185.973 133.33 186.333 133.69 186.84L133.73 186.82V185.74H137.37ZM131.51 188.48C130.777 188.493 130.203 188.733 129.79 189.2C129.377 189.653 129.17 190.193 129.17 190.82C129.17 191.473 129.377 192.02 129.79 192.46C130.203 192.9 130.777 193.12 131.51 193.12C132.257 193.12 132.83 192.9 133.23 192.46C133.643 192.02 133.85 191.473 133.85 190.82C133.85 190.193 133.643 189.653 133.23 189.2C132.83 188.733 132.257 188.5 131.51 188.5V188.48ZM143.285 185.74V196H139.645V185.74H143.285ZM141.465 179.76C142.025 179.773 142.505 179.98 142.905 180.38C143.305 180.78 143.505 181.26 143.505 181.82C143.505 182.38 143.305 182.86 142.905 183.26C142.505 183.66 142.025 183.86 141.465 183.86C140.905 183.86 140.425 183.66 140.025 183.26C139.625 182.86 139.425 182.38 139.425 181.82C139.425 181.26 139.625 180.78 140.025 180.38C140.425 179.98 140.905 179.78 141.465 179.78V179.76ZM155.116 185.74L157.576 191L160.016 185.74H164.096L158.736 196H156.416L151.036 185.74H155.116ZM175.537 191.1V191.48H167.877C167.877 192.227 168.07 192.8 168.457 193.2C168.844 193.587 169.41 193.78 170.157 193.78C170.544 193.78 170.877 193.707 171.157 193.56C171.45 193.413 171.697 193.173 171.897 192.84L175.397 192.82C175.104 194.047 174.45 194.94 173.437 195.5C172.437 196.06 171.35 196.34 170.177 196.34C168.484 196.34 167.07 195.88 165.937 194.96C164.804 194.027 164.237 192.673 164.237 190.9C164.237 189.193 164.764 187.853 165.817 186.88C166.884 185.907 168.25 185.42 169.917 185.42C171.704 185.42 173.084 185.933 174.057 186.96C175.044 187.987 175.537 189.373 175.537 191.12V191.1ZM167.937 189.38H172.157C172.064 188.9 171.817 188.513 171.417 188.22C171.03 187.927 170.59 187.78 170.097 187.78C169.564 187.78 169.097 187.92 168.697 188.2C168.297 188.467 168.044 188.867 167.937 189.4V189.38ZM180.844 185.74V196H177.204V185.74H180.844ZM179.024 179.76C179.584 179.773 180.064 179.98 180.464 180.38C180.864 180.78 181.064 181.26 181.064 181.82C181.064 182.38 180.864 182.86 180.464 183.26C180.064 183.66 179.584 183.86 179.024 183.86C178.464 183.86 177.984 183.66 177.584 183.26C177.184 182.86 176.984 182.38 176.984 181.82C176.984 181.26 177.184 180.78 177.584 180.38C177.984 179.98 178.464 179.78 179.024 179.78V179.76ZM190.639 186V189.08C190.372 188.893 190.079 188.733 189.759 188.6C189.439 188.453 189.106 188.38 188.759 188.38C188.066 188.38 187.472 188.62 186.979 189.1C186.499 189.58 186.259 190.173 186.259 190.88C186.259 191.613 186.499 192.22 186.979 192.7C187.459 193.167 188.072 193.4 188.819 193.4C188.886 193.4 188.952 193.4 189.019 193.4C189.099 193.387 189.172 193.373 189.239 193.36C189.492 193.32 189.739 193.247 189.979 193.14C190.232 193.02 190.452 192.873 190.639 192.7V195.76C190.239 195.96 189.819 196.107 189.379 196.2C188.952 196.293 188.519 196.34 188.079 196.34C186.559 196.34 185.246 195.84 184.139 194.84C183.046 193.827 182.499 192.547 182.499 191C182.499 189.347 183.052 188.007 184.159 186.98C185.266 185.94 186.626 185.42 188.239 185.42C188.666 185.42 189.079 185.473 189.479 185.58C189.892 185.673 190.279 185.82 190.639 186.02V186ZM198.327 185.4C199.98 185.413 201.42 185.9 202.647 186.86C203.887 187.807 204.507 189.153 204.507 190.9C204.507 192.633 203.887 193.973 202.647 194.92C201.42 195.867 199.98 196.34 198.327 196.34C196.687 196.34 195.247 195.873 194.007 194.94C192.767 193.993 192.147 192.647 192.147 190.9C192.147 189.153 192.76 187.807 193.987 186.86C195.227 185.9 196.674 185.42 198.327 185.42V185.4ZM198.327 188.56C197.594 188.573 197.02 188.813 196.607 189.28C196.194 189.733 195.987 190.273 195.987 190.9C195.987 191.553 196.194 192.1 196.607 192.54C197.02 192.98 197.594 193.2 198.327 193.2C199.074 193.2 199.647 192.98 200.047 192.54C200.46 192.1 200.667 191.553 200.667 190.9C200.667 190.273 200.46 189.733 200.047 189.28C199.647 188.813 199.074 188.58 198.327 188.58V188.56ZM209.789 179.4V196H206.149V179.4H209.789ZM217.604 185.4C219.258 185.413 220.698 185.9 221.924 186.86C223.164 187.807 223.784 189.153 223.784 190.9C223.784 192.633 223.164 193.973 221.924 194.92C220.698 195.867 219.258 196.34 217.604 196.34C215.964 196.34 214.524 195.873 213.284 194.94C212.044 193.993 211.424 192.647 211.424 190.9C211.424 189.153 212.038 187.807 213.264 186.86C214.504 185.9 215.951 185.42 217.604 185.42V185.4ZM217.604 188.56C216.871 188.573 216.298 188.813 215.884 189.28C215.471 189.733 215.264 190.273 215.264 190.9C215.264 191.553 215.471 192.1 215.884 192.54C216.298 192.98 216.871 193.2 217.604 193.2C218.351 193.2 218.924 192.98 219.324 192.54C219.738 192.1 219.944 191.553 219.944 190.9C219.944 190.273 219.738 189.733 219.324 189.28C218.924 188.813 218.351 188.58 217.604 188.58V188.56Z" fill="#E9E9E9"/>
<path d="M256.886 0L225.295 31.7411L215.049 21.4467L205 31.5431L215.246 41.8376L225.36 52L235.409 41.9035L267 10.1625L256.886 0Z" fill="#3FD0CB"/>
<defs>
<filter id="filter0_d" x="18" y="15" width="255" height="243" filterUnits="userSpaceOnUse" color-interpolation-filters="sRGB">
<feFlood flood-opacity="0" result="BackgroundImageFix"/>
<feColorMatrix in="SourceAlpha" type="matrix" values="0 0 0 0 0 0 0 0 0 0 0 0 0 0 0 0 0 0 127 0"/>
<feMorphology radius="3" operator="dilate" in="SourceAlpha" result="effect1_dropShadow"/>
<feOffset dx="11" dy="8"/>
<feGaussianBlur stdDeviation="2"/>
<feColorMatrix type="matrix" values="0 0 0 0 0 0 0 0 0 0 0 0 0 0 0 0 0 0 0.25 0"/>
<feBlend mode="normal" in2="BackgroundImageFix" result="effect1_dropShadow"/>
<feBlend mode="normal" in="SourceGraphic" in2="effect1_dropShadow" result="shape"/>
</filter>
</defs>
</svg>
