<svg width="274" height="255" viewBox="0 0 274 255" fill="none" xmlns="http://www.w3.org/2000/svg">
<g filter="url(#filter0_d)">
<rect x="18" y="12" width="237" height="228" rx="41.5" fill="#39304D"/>
</g>
<path d="M64.1216 184.38H58.7216L57.6816 187H53.5216L59.3216 171.92H63.6016L69.2816 187H65.1016L64.1216 184.38ZM63.0616 181.38L61.4616 176.58H61.4216L59.8016 181.38H63.0616ZM81.6866 176.74V186C81.6866 188.187 81.1666 189.753 80.1266 190.7C79.0999 191.647 77.6399 192.12 75.7466 192.12C75.4932 192.12 75.2266 192.107 74.9466 192.08C74.6666 192.053 74.3866 192.007 74.1066 191.94C73.1199 191.727 72.1999 191.313 71.3466 190.7C70.5066 190.087 70.0266 189.253 69.9066 188.2H73.9866C74.0399 188.387 74.1266 188.54 74.2466 188.66C74.3666 188.793 74.5066 188.9 74.6666 188.98C74.7599 189.033 74.8599 189.073 74.9666 189.1C75.0732 189.14 75.1799 189.167 75.2866 189.18C75.3532 189.193 75.4199 189.2 75.4866 189.2C75.5666 189.213 75.6399 189.22 75.7066 189.22C76.6932 189.22 77.3266 188.933 77.6066 188.36C77.8999 187.8 78.0466 187.113 78.0466 186.3V185.8C77.5799 186.28 77.0866 186.633 76.5666 186.86C76.0599 187.087 75.4666 187.2 74.7866 187.2C73.2932 187.2 72.0732 186.7 71.1266 185.7C70.1932 184.7 69.7266 183.46 69.7266 181.98C69.7266 180.473 70.2066 179.173 71.1666 178.08C72.1399 176.973 73.4132 176.42 74.9866 176.42C75.5866 176.42 76.1466 176.533 76.6666 176.76C77.1999 176.973 77.6466 177.333 78.0066 177.84L78.0466 177.82V176.74H81.6866ZM75.8266 179.48C75.0932 179.493 74.5199 179.733 74.1066 180.2C73.6932 180.653 73.4866 181.193 73.4866 181.82C73.4866 182.473 73.6932 183.02 74.1066 183.46C74.5199 183.9 75.0932 184.12 75.8266 184.12C76.5732 184.12 77.1466 183.9 77.5466 183.46C77.9599 183.02 78.1666 182.473 78.1666 181.82C78.1666 181.193 77.9599 180.653 77.5466 180.2C77.1466 179.733 76.5732 179.5 75.8266 179.5V179.48ZM95.2217 176.74V186C95.2217 188.187 94.7017 189.753 93.6617 190.7C92.6351 191.647 91.1751 192.12 89.2817 192.12C89.0284 192.12 88.7617 192.107 88.4817 192.08C88.2017 192.053 87.9217 192.007 87.6417 191.94C86.6551 191.727 85.7351 191.313 84.8817 190.7C84.0417 190.087 83.5617 189.253 83.4417 188.2H87.5217C87.5751 188.387 87.6617 188.54 87.7817 188.66C87.9017 188.793 88.0417 188.9 88.2017 188.98C88.2951 189.033 88.3951 189.073 88.5017 189.1C88.6084 189.14 88.7151 189.167 88.8217 189.18C88.8884 189.193 88.9551 189.2 89.0217 189.2C89.1017 189.213 89.1751 189.22 89.2417 189.22C90.2284 189.22 90.8617 188.933 91.1417 188.36C91.4351 187.8 91.5817 187.113 91.5817 186.3V185.8C91.1151 186.28 90.6217 186.633 90.1017 186.86C89.5951 187.087 89.0017 187.2 88.3217 187.2C86.8284 187.2 85.6084 186.7 84.6617 185.7C83.7284 184.7 83.2617 183.46 83.2617 181.98C83.2617 180.473 83.7417 179.173 84.7017 178.08C85.6751 176.973 86.9484 176.42 88.5217 176.42C89.1217 176.42 89.6817 176.533 90.2017 176.76C90.7351 176.973 91.1817 177.333 91.5417 177.84L91.5817 177.82V176.74H95.2217ZM89.3617 179.48C88.6284 179.493 88.0551 179.733 87.6417 180.2C87.2284 180.653 87.0217 181.193 87.0217 181.82C87.0217 182.473 87.2284 183.02 87.6417 183.46C88.0551 183.9 88.6284 184.12 89.3617 184.12C90.1084 184.12 90.6817 183.9 91.0817 183.46C91.4951 183.02 91.7017 182.473 91.7017 181.82C91.7017 181.193 91.4951 180.653 91.0817 180.2C90.6817 179.733 90.1084 179.5 89.3617 179.5V179.48ZM101.137 176.74V187H97.4969V176.74H101.137ZM99.3169 170.76C99.8769 170.773 100.357 170.98 100.757 171.38C101.157 171.78 101.357 172.26 101.357 172.82C101.357 173.38 101.157 173.86 100.757 174.26C100.357 174.66 99.8769 174.86 99.3169 174.86C98.7569 174.86 98.2769 174.66 97.8769 174.26C97.4769 173.86 97.2769 173.38 97.2769 172.82C97.2769 172.26 97.4769 171.78 97.8769 171.38C98.2769 170.98 98.7569 170.78 99.3169 170.78V170.76ZM103.472 176.74H107.112V182.22C107.112 182.887 107.225 183.427 107.452 183.84C107.692 184.253 108.185 184.46 108.932 184.46C109.679 184.46 110.165 184.253 110.392 183.84C110.632 183.427 110.752 182.893 110.752 182.24V176.74H114.392V182.92C114.392 184.627 113.865 185.793 112.812 186.42C111.772 187.033 110.479 187.34 108.932 187.34C107.399 187.34 106.105 187.033 105.052 186.42C103.999 185.793 103.472 184.633 103.472 182.94V176.74ZM120.356 176.74V178.06H120.396C120.822 177.447 121.296 177.02 121.816 176.78C122.349 176.54 122.969 176.42 123.676 176.42C125.062 176.42 126.049 176.813 126.636 177.6C127.236 178.387 127.536 179.413 127.536 180.68V187H123.896V182C123.896 181.973 123.896 181.94 123.896 181.9C123.896 181.86 123.896 181.82 123.896 181.78C123.896 181.66 123.896 181.533 123.896 181.4C123.896 181.267 123.889 181.133 123.876 181C123.849 180.587 123.729 180.207 123.516 179.86C123.302 179.5 122.882 179.32 122.256 179.32C121.522 179.32 121.022 179.56 120.756 180.04C120.489 180.507 120.356 181.06 120.356 181.7V187H116.716V176.74H120.356ZM141.198 176.74V186C141.198 188.187 140.678 189.753 139.638 190.7C138.612 191.647 137.152 192.12 135.258 192.12C135.005 192.12 134.738 192.107 134.458 192.08C134.178 192.053 133.898 192.007 133.618 191.94C132.632 191.727 131.712 191.313 130.858 190.7C130.018 190.087 129.538 189.253 129.418 188.2H133.498C133.552 188.387 133.638 188.54 133.758 188.66C133.878 188.793 134.018 188.9 134.178 188.98C134.272 189.033 134.372 189.073 134.478 189.1C134.585 189.14 134.692 189.167 134.798 189.18C134.865 189.193 134.932 189.2 134.998 189.2C135.078 189.213 135.152 189.22 135.218 189.22C136.205 189.22 136.838 188.933 137.118 188.36C137.412 187.8 137.558 187.113 137.558 186.3V185.8C137.092 186.28 136.598 186.633 136.078 186.86C135.572 187.087 134.978 187.2 134.298 187.2C132.805 187.2 131.585 186.7 130.638 185.7C129.705 184.7 129.238 183.46 129.238 181.98C129.238 180.473 129.718 179.173 130.678 178.08C131.652 176.973 132.925 176.42 134.498 176.42C135.098 176.42 135.658 176.533 136.178 176.76C136.712 176.973 137.158 177.333 137.518 177.84L137.558 177.82V176.74H141.198ZM135.338 179.48C134.605 179.493 134.032 179.733 133.618 180.2C133.205 180.653 132.998 181.193 132.998 181.82C132.998 182.473 133.205 183.02 133.618 183.46C134.032 183.9 134.605 184.12 135.338 184.12C136.085 184.12 136.658 183.9 137.058 183.46C137.472 183.02 137.678 182.473 137.678 181.82C137.678 181.193 137.472 180.653 137.058 180.2C136.658 179.733 136.085 179.5 135.338 179.5V179.48ZM147.113 176.74V187H143.473V176.74H147.113ZM145.293 170.76C145.853 170.773 146.333 170.98 146.733 171.38C147.133 171.78 147.333 172.26 147.333 172.82C147.333 173.38 147.133 173.86 146.733 174.26C146.333 174.66 145.853 174.86 145.293 174.86C144.733 174.86 144.253 174.66 143.853 174.26C143.453 173.86 143.253 173.38 143.253 172.82C143.253 172.26 143.453 171.78 143.853 171.38C144.253 170.98 144.733 170.78 145.293 170.78V170.76ZM156.304 176.74H159.944V182.22C159.944 182.887 160.057 183.427 160.284 183.84C160.524 184.253 161.017 184.46 161.764 184.46C162.511 184.46 162.997 184.253 163.224 183.84C163.464 183.427 163.584 182.893 163.584 182.24V176.74H167.224V182.92C167.224 184.627 166.697 185.793 165.644 186.42C164.604 187.033 163.311 187.34 161.764 187.34C160.231 187.34 158.937 187.033 157.884 186.42C156.831 185.793 156.304 184.633 156.304 182.94V176.74ZM173.528 179.74V187H169.888V179.74H168.708V176.74H169.888V173.66H173.528V176.74H175.588V179.74H173.528ZM187.295 182.1V182.48H179.635C179.635 183.227 179.828 183.8 180.215 184.2C180.601 184.587 181.168 184.78 181.915 184.78C182.301 184.78 182.635 184.707 182.915 184.56C183.208 184.413 183.455 184.173 183.655 183.84L187.155 183.82C186.861 185.047 186.208 185.94 185.195 186.5C184.195 187.06 183.108 187.34 181.935 187.34C180.241 187.34 178.828 186.88 177.695 185.96C176.561 185.027 175.995 183.673 175.995 181.9C175.995 180.193 176.521 178.853 177.575 177.88C178.641 176.907 180.008 176.42 181.675 176.42C183.461 176.42 184.841 176.933 185.815 177.96C186.801 178.987 187.295 180.373 187.295 182.12V182.1ZM179.695 180.38H183.915C183.821 179.9 183.575 179.513 183.175 179.22C182.788 178.927 182.348 178.78 181.855 178.78C181.321 178.78 180.855 178.92 180.455 179.2C180.055 179.467 179.801 179.867 179.695 180.4V180.38ZM192.602 176.74V178.06H192.642C193.068 177.447 193.542 177.02 194.062 176.78C194.595 176.54 195.215 176.42 195.922 176.42C197.308 176.42 198.295 176.813 198.882 177.6C199.482 178.387 199.782 179.413 199.782 180.68V187H196.142V182C196.142 181.973 196.142 181.94 196.142 181.9C196.142 181.86 196.142 181.82 196.142 181.78C196.142 181.66 196.142 181.533 196.142 181.4C196.142 181.267 196.135 181.133 196.122 181C196.095 180.587 195.975 180.207 195.762 179.86C195.548 179.5 195.128 179.32 194.502 179.32C193.768 179.32 193.268 179.56 193.002 180.04C192.735 180.507 192.602 181.06 192.602 181.7V187H188.962V176.74H192.602ZM206.164 179.74V187H202.524V179.74H201.344V176.74H202.524V173.66H206.164V176.74H208.224V179.74H206.164ZM219.931 182.1V182.48H212.271C212.271 183.227 212.465 183.8 212.851 184.2C213.238 184.587 213.805 184.78 214.551 184.78C214.938 184.78 215.271 184.707 215.551 184.56C215.845 184.413 216.091 184.173 216.291 183.84L219.791 183.82C219.498 185.047 218.845 185.94 217.831 186.5C216.831 187.06 215.745 187.34 214.571 187.34C212.878 187.34 211.465 186.88 210.331 185.96C209.198 185.027 208.631 183.673 208.631 181.9C208.631 180.193 209.158 178.853 210.211 177.88C211.278 176.907 212.645 176.42 214.311 176.42C216.098 176.42 217.478 176.933 218.451 177.96C219.438 178.987 219.931 180.373 219.931 182.12V182.1ZM212.331 180.38H216.551C216.458 179.9 216.211 179.513 215.811 179.22C215.425 178.927 214.985 178.78 214.491 178.78C213.958 178.78 213.491 178.92 213.091 179.2C212.691 179.467 212.438 179.867 212.331 180.4V180.38Z" fill="#E9E9E9"/>
<path d="M114.125 68.0416C114.125 80.6534 124.388 90.9166 137 90.9166C149.612 90.9166 159.875 80.6534 159.875 68.0416C159.875 55.4299 149.612 45.1666 137 45.1666C124.388 45.1666 114.125 55.4299 114.125 68.0416ZM177.667 141.75H182.75V136.667C182.75 117.05 166.783 101.083 147.167 101.083H126.833C107.212 101.083 91.25 117.05 91.25 136.667V141.75H177.667Z" fill="#3FD0CB"/>
<path d="M256.886 0L225.295 31.7411L215.049 21.4467L205 31.5431L215.246 41.8376L225.36 52L235.409 41.9035L267 10.1625L256.886 0Z" fill="#3FD0CB"/>
<defs>
<filter id="filter0_d" x="18" y="12" width="255" height="243" filterUnits="userSpaceOnUse" color-interpolation-filters="sRGB">
<feFlood flood-opacity="0" result="BackgroundImageFix"/>
<feColorMatrix in="SourceAlpha" type="matrix" values="0 0 0 0 0 0 0 0 0 0 0 0 0 0 0 0 0 0 127 0"/>
<feMorphology radius="3" operator="dilate" in="SourceAlpha" result="effect1_dropShadow"/>
<feOffset dx="11" dy="8"/>
<feGaussianBlur stdDeviation="2"/>
<feColorMatrix type="matrix" values="0 0 0 0 0 0 0 0 0 0 0 0 0 0 0 0 0 0 0.25 0"/>
<feBlend mode="normal" in2="BackgroundImageFix" result="effect1_dropShadow"/>
<feBlend mode="normal" in="SourceGraphic" in2="effect1_dropShadow" result="shape"/>
</filter>
</defs>
</svg>
