<svg width="274" height="243" viewBox="0 0 274 243" fill="none" xmlns="http://www.w3.org/2000/svg">
<g filter="url(#filter0_d)">
<rect x="18" width="237" height="228" rx="41.5" fill="#809A98"/>
</g>
<path d="M107.044 159.92V171.68H111.744V175H103.124V159.92H107.044ZM118.366 164.4C120.019 164.413 121.459 164.9 122.686 165.86C123.926 166.807 124.546 168.153 124.546 169.9C124.546 171.633 123.926 172.973 122.686 173.92C121.459 174.867 120.019 175.34 118.366 175.34C116.726 175.34 115.286 174.873 114.046 173.94C112.806 172.993 112.186 171.647 112.186 169.9C112.186 168.153 112.799 166.807 114.026 165.86C115.266 164.9 116.713 164.42 118.366 164.42V164.4ZM118.366 167.56C117.633 167.573 117.059 167.813 116.646 168.28C116.233 168.733 116.026 169.273 116.026 169.9C116.026 170.553 116.233 171.1 116.646 171.54C117.059 171.98 117.633 172.2 118.366 172.2C119.113 172.2 119.686 171.98 120.086 171.54C120.499 171.1 120.706 170.553 120.706 169.9C120.706 169.273 120.499 168.733 120.086 168.28C119.686 167.813 119.113 167.58 118.366 167.58V167.56ZM137.448 164.74V174C137.448 176.187 136.928 177.753 135.888 178.7C134.862 179.647 133.402 180.12 131.508 180.12C131.255 180.12 130.988 180.107 130.708 180.08C130.428 180.053 130.148 180.007 129.868 179.94C128.882 179.727 127.962 179.313 127.108 178.7C126.268 178.087 125.788 177.253 125.668 176.2H129.748C129.802 176.387 129.888 176.54 130.008 176.66C130.128 176.793 130.268 176.9 130.428 176.98C130.522 177.033 130.622 177.073 130.728 177.1C130.835 177.14 130.942 177.167 131.048 177.18C131.115 177.193 131.182 177.2 131.248 177.2C131.328 177.213 131.402 177.22 131.468 177.22C132.455 177.22 133.088 176.933 133.368 176.36C133.662 175.8 133.808 175.113 133.808 174.3V173.8C133.342 174.28 132.848 174.633 132.328 174.86C131.822 175.087 131.228 175.2 130.548 175.2C129.055 175.2 127.835 174.7 126.888 173.7C125.955 172.7 125.488 171.46 125.488 169.98C125.488 168.473 125.968 167.173 126.928 166.08C127.902 164.973 129.175 164.42 130.748 164.42C131.348 164.42 131.908 164.533 132.428 164.76C132.962 164.973 133.408 165.333 133.768 165.84L133.808 165.82V164.74H137.448ZM131.588 167.48C130.855 167.493 130.282 167.733 129.868 168.2C129.455 168.653 129.248 169.193 129.248 169.82C129.248 170.473 129.455 171.02 129.868 171.46C130.282 171.9 130.855 172.12 131.588 172.12C132.335 172.12 132.908 171.9 133.308 171.46C133.722 171.02 133.928 170.473 133.928 169.82C133.928 169.193 133.722 168.653 133.308 168.2C132.908 167.733 132.335 167.5 131.588 167.5V167.48ZM145.143 164.4C146.797 164.413 148.237 164.9 149.463 165.86C150.703 166.807 151.323 168.153 151.323 169.9C151.323 171.633 150.703 172.973 149.463 173.92C148.237 174.867 146.797 175.34 145.143 175.34C143.503 175.34 142.063 174.873 140.823 173.94C139.583 172.993 138.963 171.647 138.963 169.9C138.963 168.153 139.577 166.807 140.803 165.86C142.043 164.9 143.49 164.42 145.143 164.42V164.4ZM145.143 167.56C144.41 167.573 143.837 167.813 143.423 168.28C143.01 168.733 142.803 169.273 142.803 169.9C142.803 170.553 143.01 171.1 143.423 171.54C143.837 171.98 144.41 172.2 145.143 172.2C145.89 172.2 146.463 171.98 146.863 171.54C147.277 171.1 147.483 170.553 147.483 169.9C147.483 169.273 147.277 168.733 146.863 168.28C146.463 167.813 145.89 167.58 145.143 167.58V167.56ZM152.906 164.74H156.546V170.22C156.546 170.887 156.659 171.427 156.886 171.84C157.126 172.253 157.619 172.46 158.366 172.46C159.112 172.46 159.599 172.253 159.826 171.84C160.066 171.427 160.186 170.893 160.186 170.24V164.74H163.826V170.92C163.826 172.627 163.299 173.793 162.246 174.42C161.206 175.033 159.912 175.34 158.366 175.34C156.832 175.34 155.539 175.033 154.486 174.42C153.432 173.793 152.906 172.633 152.906 170.94V164.74ZM170.129 167.74V175H166.489V167.74H165.309V164.74H166.489V161.66H170.129V164.74H172.189V167.74H170.129Z" fill="#1D192A"/>
<path d="M114.125 56.0416C114.125 68.6534 124.388 78.9166 137 78.9166C149.612 78.9166 159.875 68.6534 159.875 56.0416C159.875 43.4299 149.612 33.1666 137 33.1666C124.388 33.1666 114.125 43.4299 114.125 56.0416ZM177.667 129.75H182.75V124.667C182.75 105.05 166.783 89.0833 147.167 89.0833H126.833C107.212 89.0833 91.25 105.05 91.25 124.667V129.75H177.667Z" fill="#484848"/>
<defs>
<filter id="filter0_d" x="18" y="0" width="255" height="243" filterUnits="userSpaceOnUse" color-interpolation-filters="sRGB">
<feFlood flood-opacity="0" result="BackgroundImageFix"/>
<feColorMatrix in="SourceAlpha" type="matrix" values="0 0 0 0 0 0 0 0 0 0 0 0 0 0 0 0 0 0 127 0"/>
<feMorphology radius="3" operator="dilate" in="SourceAlpha" result="effect1_dropShadow"/>
<feOffset dx="11" dy="8"/>
<feGaussianBlur stdDeviation="2"/>
<feColorMatrix type="matrix" values="0 0 0 0 0 0 0 0 0 0 0 0 0 0 0 0 0 0 0.25 0"/>
<feBlend mode="normal" in2="BackgroundImageFix" result="effect1_dropShadow"/>
<feBlend mode="normal" in="SourceGraphic" in2="effect1_dropShadow" result="shape"/>
</filter>
</defs>
</svg>
