<svg width="274" height="260" viewBox="0 0 274 260" fill="none" xmlns="http://www.w3.org/2000/svg">
<g filter="url(#filter0_d)">
<rect x="18" y="17" width="237" height="228" rx="41.5" fill="#39304D"/>
</g>
<path d="M178.667 84.2363L172.169 64.7423C171.226 61.904 169.413 59.4351 166.987 57.6862C164.561 55.9373 161.646 54.9973 158.655 55H115.345C112.354 54.9973 109.439 55.9373 107.013 57.6862C104.587 59.4351 102.774 61.904 101.831 64.7423L95.333 84.2363C93.6051 84.9593 92.1294 86.177 91.0916 87.7363C90.0537 89.2956 89.5 91.1269 89.5 93V116.75C89.5 120.256 91.419 123.286 94.25 124.934V135.75C94.25 137.01 94.7504 138.218 95.6412 139.109C96.532 140 97.7402 140.5 99 140.5H103.75C105.01 140.5 106.218 140 107.109 139.109C108 138.218 108.5 137.01 108.5 135.75V126.25H165.5V135.75C165.5 137.01 166 138.218 166.891 139.109C167.782 140 168.99 140.5 170.25 140.5H175C176.26 140.5 177.468 140 178.359 139.109C179.25 138.218 179.75 137.01 179.75 135.75V124.934C181.191 124.108 182.389 122.916 183.223 121.479C184.057 120.042 184.497 118.411 184.5 116.75V93C184.5 91.1269 183.946 89.2956 182.908 87.7363C181.871 86.177 180.395 84.9593 178.667 84.2363ZM115.345 64.5H158.651C160.698 64.5 162.512 65.8015 163.158 67.749L168.412 83.5H105.588L110.837 67.749C111.152 66.8028 111.757 65.9798 112.566 65.3966C113.375 64.8135 114.347 64.4998 115.345 64.5V64.5ZM106.125 112C105.189 112 104.262 111.815 103.398 111.457C102.533 111.098 101.747 110.573 101.086 109.911C100.424 109.249 99.8995 108.463 99.5416 107.598C99.1837 106.733 98.9997 105.806 99 104.87C99.0003 103.934 99.185 103.008 99.5434 102.143C99.9019 101.278 100.427 100.493 101.089 99.8311C101.751 99.1695 102.537 98.6448 103.402 98.2869C104.267 97.929 105.194 97.7449 106.13 97.7453C108.02 97.7459 109.833 98.4974 111.169 99.8345C112.505 101.172 113.255 102.985 113.255 104.875C113.254 106.765 112.503 108.578 111.166 109.914C109.828 111.25 108.015 112.001 106.125 112V112ZM167.875 112C166.939 112 166.012 111.815 165.148 111.457C164.283 111.098 163.497 110.573 162.836 109.911C162.174 109.249 161.65 108.463 161.292 107.598C160.934 106.733 160.75 105.806 160.75 104.87C160.75 103.934 160.935 103.008 161.293 102.143C161.652 101.278 162.177 100.493 162.839 99.8311C163.501 99.1695 164.287 98.6448 165.152 98.2869C166.017 97.929 166.944 97.7449 167.88 97.7453C169.77 97.7459 171.583 98.4974 172.919 99.8345C174.255 101.172 175.005 102.985 175.005 104.875C175.004 106.765 174.253 108.578 172.916 109.914C171.578 111.25 169.765 112.001 167.875 112V112Z" fill="#3FD0CB"/>
<path d="M59.9191 198L62.4791 182.92H66.3391L69.3991 190.98L72.6391 182.92H76.5391L78.8191 198H74.8991L73.7991 189.32H73.7591L70.1391 198H68.5791L65.1191 189.32H65.0791L63.8191 198H59.9191ZM85.827 187.4C87.4804 187.413 88.9204 187.9 90.147 188.86C91.387 189.807 92.007 191.153 92.007 192.9C92.007 194.633 91.387 195.973 90.147 196.92C88.9204 197.867 87.4804 198.34 85.827 198.34C84.187 198.34 82.747 197.873 81.507 196.94C80.267 195.993 79.647 194.647 79.647 192.9C79.647 191.153 80.2604 189.807 81.487 188.86C82.727 187.9 84.1737 187.42 85.827 187.42V187.4ZM85.827 190.56C85.0937 190.573 84.5204 190.813 84.107 191.28C83.6937 191.733 83.487 192.273 83.487 192.9C83.487 193.553 83.6937 194.1 84.107 194.54C84.5204 194.98 85.0937 195.2 85.827 195.2C86.5737 195.2 87.147 194.98 87.547 194.54C87.9604 194.1 88.167 193.553 88.167 192.9C88.167 192.273 87.9604 191.733 87.547 191.28C87.147 190.813 86.5737 190.58 85.827 190.58V190.56ZM101.369 198V196.86H101.329C101.036 197.34 100.636 197.7 100.129 197.94C99.6226 198.167 99.0959 198.293 98.5492 198.32C98.4959 198.333 98.4426 198.34 98.3892 198.34C98.3359 198.34 98.2826 198.34 98.2292 198.34C96.7092 198.34 95.4626 197.8 94.4892 196.72C93.5292 195.627 93.0492 194.347 93.0492 192.88C93.0492 191.413 93.5226 190.14 94.4692 189.06C95.4292 187.967 96.6692 187.42 98.1892 187.42C98.2559 187.42 98.3226 187.42 98.3892 187.42C98.4559 187.42 98.5226 187.427 98.5892 187.44C99.1092 187.48 99.6159 187.613 100.109 187.84C100.616 188.053 101.036 188.36 101.369 188.76V181.4H105.009V198H101.369ZM99.1492 190.56C98.4159 190.573 97.8426 190.813 97.4292 191.28C97.0159 191.733 96.8092 192.273 96.8092 192.9C96.8092 193.553 97.0159 194.1 97.4292 194.54C97.8426 194.98 98.4159 195.2 99.1492 195.2C99.8959 195.2 100.469 194.98 100.869 194.54C101.283 194.1 101.489 193.553 101.489 192.9C101.489 192.273 101.283 191.733 100.869 191.28C100.469 190.813 99.8959 190.58 99.1492 190.58V190.56ZM110.922 187.74V198H107.282V187.74H110.922ZM109.102 181.76C109.662 181.773 110.142 181.98 110.542 182.38C110.942 182.78 111.142 183.26 111.142 183.82C111.142 184.38 110.942 184.86 110.542 185.26C110.142 185.66 109.662 185.86 109.102 185.86C108.542 185.86 108.062 185.66 107.662 185.26C107.262 184.86 107.062 184.38 107.062 183.82C107.062 183.26 107.262 182.78 107.662 182.38C108.062 181.98 108.542 181.78 109.102 181.78V181.76ZM117.317 190.74V198H113.677V190.74H112.397V187.74H113.677V186.44C113.677 185.893 113.704 185.387 113.757 184.92C113.811 184.453 113.964 184 114.217 183.56C114.284 183.44 114.357 183.327 114.437 183.22C114.517 183.1 114.611 182.98 114.717 182.86C115.171 182.327 115.704 181.92 116.317 181.64C116.944 181.36 117.604 181.22 118.297 181.22C118.577 181.22 118.844 181.247 119.097 181.3C119.351 181.353 119.604 181.447 119.857 181.58V184.7C119.804 184.687 119.744 184.667 119.677 184.64C119.624 184.613 119.564 184.593 119.497 184.58C119.351 184.513 119.204 184.467 119.057 184.44C118.911 184.4 118.751 184.38 118.577 184.38C118.111 184.38 117.784 184.52 117.597 184.8C117.411 185.08 117.317 185.513 117.317 186.1V187.74H119.857V190.74H117.317ZM124.711 187.74V198H121.071V187.74H124.711ZM122.891 181.76C123.451 181.773 123.931 181.98 124.331 182.38C124.731 182.78 124.931 183.26 124.931 183.82C124.931 184.38 124.731 184.86 124.331 185.26C123.931 185.66 123.451 185.86 122.891 185.86C122.331 185.86 121.851 185.66 121.451 185.26C121.051 184.86 120.851 184.38 120.851 183.82C120.851 183.26 121.051 182.78 121.451 182.38C121.851 181.98 122.331 181.78 122.891 181.78V181.76ZM134.506 188V191.08C134.24 190.893 133.946 190.733 133.626 190.6C133.306 190.453 132.973 190.38 132.626 190.38C131.933 190.38 131.34 190.62 130.846 191.1C130.366 191.58 130.126 192.173 130.126 192.88C130.126 193.613 130.366 194.22 130.846 194.7C131.326 195.167 131.94 195.4 132.686 195.4C132.753 195.4 132.82 195.4 132.886 195.4C132.966 195.387 133.04 195.373 133.106 195.36C133.36 195.32 133.606 195.247 133.846 195.14C134.1 195.02 134.32 194.873 134.506 194.7V197.76C134.106 197.96 133.686 198.107 133.246 198.2C132.82 198.293 132.386 198.34 131.946 198.34C130.426 198.34 129.113 197.84 128.006 196.84C126.913 195.827 126.366 194.547 126.366 193C126.366 191.347 126.92 190.007 128.026 188.98C129.133 187.94 130.493 187.42 132.106 187.42C132.533 187.42 132.946 187.473 133.346 187.58C133.76 187.673 134.146 187.82 134.506 188.02V188ZM147.994 187.74V198H144.354V196.86H144.314C144.021 197.34 143.621 197.7 143.114 197.94C142.608 198.167 142.081 198.293 141.534 198.32C141.481 198.333 141.428 198.34 141.374 198.34C141.321 198.34 141.268 198.34 141.214 198.34C139.694 198.34 138.448 197.8 137.474 196.72C136.514 195.627 136.034 194.347 136.034 192.88C136.034 191.413 136.508 190.14 137.454 189.06C138.414 187.967 139.654 187.42 141.174 187.42C141.241 187.42 141.308 187.42 141.374 187.42C141.441 187.42 141.508 187.427 141.574 187.44C142.094 187.48 142.601 187.613 143.094 187.84C143.601 188.053 144.021 188.36 144.354 188.76V187.74H147.994ZM142.134 190.56C141.401 190.573 140.828 190.813 140.414 191.28C140.001 191.733 139.794 192.273 139.794 192.9C139.794 193.553 140.001 194.1 140.414 194.54C140.828 194.98 141.401 195.2 142.134 195.2C142.881 195.2 143.454 194.98 143.854 194.54C144.268 194.1 144.474 193.553 144.474 192.9C144.474 192.273 144.268 191.733 143.854 191.28C143.454 190.813 142.881 190.58 142.134 190.58V190.56ZM165.263 188.06L164.043 190.38C163.883 190.3 163.703 190.227 163.503 190.16C163.316 190.093 163.123 190.04 162.923 190C162.776 189.973 162.629 189.953 162.483 189.94C162.349 189.913 162.216 189.9 162.083 189.9C162.016 189.9 161.943 189.907 161.863 189.92C161.796 189.92 161.729 189.933 161.663 189.96C161.476 190 161.309 190.073 161.163 190.18C161.016 190.273 160.943 190.413 160.943 190.6C160.943 190.827 161.036 191 161.223 191.12C161.423 191.227 161.643 191.307 161.883 191.36C162.016 191.4 162.143 191.433 162.263 191.46C162.383 191.473 162.489 191.487 162.583 191.5C163.436 191.673 164.143 191.987 164.703 192.44C165.276 192.893 165.563 193.593 165.563 194.54C165.563 195.847 165.083 196.8 164.123 197.4C163.163 197.987 162.103 198.3 160.943 198.34C160.903 198.34 160.863 198.34 160.823 198.34C160.796 198.34 160.763 198.34 160.723 198.34C159.989 198.34 159.269 198.24 158.562 198.04C157.869 197.84 157.209 197.553 156.583 197.18L157.903 194.62C158.129 194.793 158.389 194.953 158.683 195.1C158.976 195.233 159.276 195.353 159.583 195.46C159.796 195.527 160.003 195.58 160.203 195.62C160.403 195.66 160.596 195.68 160.783 195.68C160.836 195.68 160.889 195.68 160.943 195.68C161.009 195.667 161.076 195.653 161.143 195.64C161.343 195.6 161.523 195.52 161.683 195.4C161.843 195.28 161.923 195.113 161.923 194.9C161.923 194.607 161.783 194.4 161.503 194.28C161.223 194.147 160.889 194.04 160.503 193.96C160.356 193.933 160.209 193.907 160.063 193.88C159.929 193.84 159.789 193.8 159.643 193.76C159.069 193.613 158.543 193.36 158.063 193C157.596 192.627 157.363 191.98 157.363 191.06C157.363 189.82 157.823 188.907 158.743 188.32C159.663 187.733 160.669 187.433 161.763 187.42C161.789 187.42 161.809 187.42 161.823 187.42C161.849 187.42 161.869 187.42 161.883 187.42C162.469 187.42 163.043 187.473 163.603 187.58C164.176 187.673 164.729 187.84 165.263 188.08V188.06ZM171.496 190.74V198H167.856V190.74H166.676V187.74H167.856V184.66H171.496V187.74H173.556V190.74H171.496ZM185.943 187.74V198H182.303V196.86H182.263C181.97 197.34 181.57 197.7 181.063 197.94C180.557 198.167 180.03 198.293 179.483 198.32C179.43 198.333 179.377 198.34 179.323 198.34C179.27 198.34 179.217 198.34 179.163 198.34C177.643 198.34 176.397 197.8 175.423 196.72C174.463 195.627 173.983 194.347 173.983 192.88C173.983 191.413 174.457 190.14 175.403 189.06C176.363 187.967 177.603 187.42 179.123 187.42C179.19 187.42 179.257 187.42 179.323 187.42C179.39 187.42 179.457 187.427 179.523 187.44C180.043 187.48 180.55 187.613 181.043 187.84C181.55 188.053 181.97 188.36 182.303 188.76V187.74H185.943ZM180.083 190.56C179.35 190.573 178.777 190.813 178.363 191.28C177.95 191.733 177.743 192.273 177.743 192.9C177.743 193.553 177.95 194.1 178.363 194.54C178.777 194.98 179.35 195.2 180.083 195.2C180.83 195.2 181.403 194.98 181.803 194.54C182.217 194.1 182.423 193.553 182.423 192.9C182.423 192.273 182.217 191.733 181.803 191.28C181.403 190.813 180.83 190.58 180.083 190.58V190.56ZM192.336 190.74V198H188.696V190.74H187.516V187.74H188.696V184.66H192.336V187.74H194.396V190.74H192.336ZM200.983 187.4C202.637 187.413 204.077 187.9 205.303 188.86C206.543 189.807 207.163 191.153 207.163 192.9C207.163 194.633 206.543 195.973 205.303 196.92C204.077 197.867 202.637 198.34 200.983 198.34C199.343 198.34 197.903 197.873 196.663 196.94C195.423 195.993 194.803 194.647 194.803 192.9C194.803 191.153 195.417 189.807 196.643 188.86C197.883 187.9 199.33 187.42 200.983 187.42V187.4ZM200.983 190.56C200.25 190.573 199.677 190.813 199.263 191.28C198.85 191.733 198.643 192.273 198.643 192.9C198.643 193.553 198.85 194.1 199.263 194.54C199.677 194.98 200.25 195.2 200.983 195.2C201.73 195.2 202.303 194.98 202.703 194.54C203.117 194.1 203.323 193.553 203.323 192.9C203.323 192.273 203.117 191.733 202.703 191.28C202.303 190.813 201.73 190.58 200.983 190.58V190.56ZM104.335 210.74L106.795 216L109.235 210.74H113.315L107.955 221H105.635L100.255 210.74H104.335ZM124.756 216.1V216.48H117.096C117.096 217.227 117.289 217.8 117.676 218.2C118.062 218.587 118.629 218.78 119.376 218.78C119.762 218.78 120.096 218.707 120.376 218.56C120.669 218.413 120.916 218.173 121.116 217.84L124.616 217.82C124.322 219.047 123.669 219.94 122.656 220.5C121.656 221.06 120.569 221.34 119.396 221.34C117.702 221.34 116.289 220.88 115.156 219.96C114.022 219.027 113.456 217.673 113.456 215.9C113.456 214.193 113.982 212.853 115.036 211.88C116.102 210.907 117.469 210.42 119.136 210.42C120.922 210.42 122.302 210.933 123.276 211.96C124.262 212.987 124.756 214.373 124.756 216.12V216.1ZM117.156 214.38H121.376C121.282 213.9 121.036 213.513 120.636 213.22C120.249 212.927 119.809 212.78 119.316 212.78C118.782 212.78 118.316 212.92 117.916 213.2C117.516 213.467 117.262 213.867 117.156 214.4V214.38ZM130.063 210.74V221H126.423V210.74H130.063ZM128.243 204.76C128.803 204.773 129.283 204.98 129.683 205.38C130.083 205.78 130.283 206.26 130.283 206.82C130.283 207.38 130.083 207.86 129.683 208.26C129.283 208.66 128.803 208.86 128.243 208.86C127.683 208.86 127.203 208.66 126.803 208.26C126.403 207.86 126.203 207.38 126.203 206.82C126.203 206.26 126.403 205.78 126.803 205.38C127.203 204.98 127.683 204.78 128.243 204.78V204.76ZM139.858 211V214.08C139.591 213.893 139.298 213.733 138.978 213.6C138.658 213.453 138.324 213.38 137.978 213.38C137.284 213.38 136.691 213.62 136.198 214.1C135.718 214.58 135.478 215.173 135.478 215.88C135.478 216.613 135.718 217.22 136.198 217.7C136.678 218.167 137.291 218.4 138.038 218.4C138.104 218.4 138.171 218.4 138.238 218.4C138.318 218.387 138.391 218.373 138.458 218.36C138.711 218.32 138.958 218.247 139.198 218.14C139.451 218.02 139.671 217.873 139.858 217.7V220.76C139.458 220.96 139.038 221.107 138.598 221.2C138.171 221.293 137.738 221.34 137.298 221.34C135.778 221.34 134.464 220.84 133.358 219.84C132.264 218.827 131.718 217.547 131.718 216C131.718 214.347 132.271 213.007 133.378 211.98C134.484 210.94 135.844 210.42 137.458 210.42C137.884 210.42 138.298 210.473 138.698 210.58C139.111 210.673 139.498 210.82 139.858 211.02V211ZM147.546 210.4C149.199 210.413 150.639 210.9 151.866 211.86C153.106 212.807 153.726 214.153 153.726 215.9C153.726 217.633 153.106 218.973 151.866 219.92C150.639 220.867 149.199 221.34 147.546 221.34C145.906 221.34 144.466 220.873 143.226 219.94C141.986 218.993 141.366 217.647 141.366 215.9C141.366 214.153 141.979 212.807 143.206 211.86C144.446 210.9 145.892 210.42 147.546 210.42V210.4ZM147.546 213.56C146.812 213.573 146.239 213.813 145.826 214.28C145.412 214.733 145.206 215.273 145.206 215.9C145.206 216.553 145.412 217.1 145.826 217.54C146.239 217.98 146.812 218.2 147.546 218.2C148.292 218.2 148.866 217.98 149.266 217.54C149.679 217.1 149.886 216.553 149.886 215.9C149.886 215.273 149.679 214.733 149.266 214.28C148.866 213.813 148.292 213.58 147.546 213.58V213.56ZM159.008 204.4V221H155.368V204.4H159.008ZM166.823 210.4C168.476 210.413 169.916 210.9 171.143 211.86C172.383 212.807 173.003 214.153 173.003 215.9C173.003 217.633 172.383 218.973 171.143 219.92C169.916 220.867 168.476 221.34 166.823 221.34C165.183 221.34 163.743 220.873 162.503 219.94C161.263 218.993 160.643 217.647 160.643 215.9C160.643 214.153 161.256 212.807 162.483 211.86C163.723 210.9 165.17 210.42 166.823 210.42V210.4ZM166.823 213.56C166.09 213.573 165.516 213.813 165.103 214.28C164.69 214.733 164.483 215.273 164.483 215.9C164.483 216.553 164.69 217.1 165.103 217.54C165.516 217.98 166.09 218.2 166.823 218.2C167.57 218.2 168.143 217.98 168.543 217.54C168.956 217.1 169.163 216.553 169.163 215.9C169.163 215.273 168.956 214.733 168.543 214.28C168.143 213.813 167.57 213.58 166.823 213.58V213.56Z" fill="#E9E9E9"/>
<path d="M219 43.5432V55H230.457L264.247 21.2101L252.79 9.75337L219 43.5432ZM273.107 8.04249L265.958 0.893458C265.675 0.610235 265.339 0.385537 264.97 0.232226C264.6 0.0789142 264.204 0 263.804 0C263.404 0 263.007 0.0789142 262.638 0.232226C262.268 0.385537 261.932 0.610235 261.65 0.893458L256.059 6.48436L267.516 17.9411L273.107 12.3502C273.39 12.0676 273.614 11.7319 273.768 11.3623C273.921 10.9927 274 10.5965 274 10.1964C274 9.79623 273.921 9.40004 273.768 9.03045C273.614 8.66086 273.39 8.32513 273.107 8.04249V8.04249Z" fill="#3FD0CB"/>
<defs>
<filter id="filter0_d" x="18" y="17" width="255" height="243" filterUnits="userSpaceOnUse" color-interpolation-filters="sRGB">
<feFlood flood-opacity="0" result="BackgroundImageFix"/>
<feColorMatrix in="SourceAlpha" type="matrix" values="0 0 0 0 0 0 0 0 0 0 0 0 0 0 0 0 0 0 127 0"/>
<feMorphology radius="3" operator="dilate" in="SourceAlpha" result="effect1_dropShadow"/>
<feOffset dx="11" dy="8"/>
<feGaussianBlur stdDeviation="2"/>
<feColorMatrix type="matrix" values="0 0 0 0 0 0 0 0 0 0 0 0 0 0 0 0 0 0 0.25 0"/>
<feBlend mode="normal" in2="BackgroundImageFix" result="effect1_dropShadow"/>
<feBlend mode="normal" in="SourceGraphic" in2="effect1_dropShadow" result="shape"/>
</filter>
</defs>
</svg>
