<svg width="274" height="257" viewBox="0 0 274 257" fill="none" xmlns="http://www.w3.org/2000/svg">
<g filter="url(#filter0_d)">
<rect x="18" y="14" width="237" height="228" rx="41.5" fill="#39304D"/>
</g>
<path d="M68.8644 189L71.4244 173.92H75.2844L78.3444 181.98L81.5844 173.92H85.4844L87.7644 189H83.8444L82.7444 180.32H82.7044L79.0844 189H77.5244L74.0644 180.32H74.0244L72.7644 189H68.8644ZM94.7723 178.4C96.4257 178.413 97.8657 178.9 99.0923 179.86C100.332 180.807 100.952 182.153 100.952 183.9C100.952 185.633 100.332 186.973 99.0923 187.92C97.8657 188.867 96.4257 189.34 94.7723 189.34C93.1323 189.34 91.6923 188.873 90.4523 187.94C89.2123 186.993 88.5923 185.647 88.5923 183.9C88.5923 182.153 89.2057 180.807 90.4323 179.86C91.6723 178.9 93.119 178.42 94.7723 178.42V178.4ZM94.7723 181.56C94.039 181.573 93.4657 181.813 93.0523 182.28C92.639 182.733 92.4323 183.273 92.4323 183.9C92.4323 184.553 92.639 185.1 93.0523 185.54C93.4657 185.98 94.039 186.2 94.7723 186.2C95.519 186.2 96.0923 185.98 96.4923 185.54C96.9057 185.1 97.1123 184.553 97.1123 183.9C97.1123 183.273 96.9057 182.733 96.4923 182.28C96.0923 181.813 95.519 181.58 94.7723 181.58V181.56ZM110.315 189V187.86H110.275C109.981 188.34 109.581 188.7 109.075 188.94C108.568 189.167 108.041 189.293 107.495 189.32C107.441 189.333 107.388 189.34 107.335 189.34C107.281 189.34 107.228 189.34 107.175 189.34C105.655 189.34 104.408 188.8 103.435 187.72C102.475 186.627 101.995 185.347 101.995 183.88C101.995 182.413 102.468 181.14 103.415 180.06C104.375 178.967 105.615 178.42 107.135 178.42C107.201 178.42 107.268 178.42 107.335 178.42C107.401 178.42 107.468 178.427 107.535 178.44C108.055 178.48 108.561 178.613 109.055 178.84C109.561 179.053 109.981 179.36 110.315 179.76V172.4H113.955V189H110.315ZM108.095 181.56C107.361 181.573 106.788 181.813 106.375 182.28C105.961 182.733 105.755 183.273 105.755 183.9C105.755 184.553 105.961 185.1 106.375 185.54C106.788 185.98 107.361 186.2 108.095 186.2C108.841 186.2 109.415 185.98 109.815 185.54C110.228 185.1 110.435 184.553 110.435 183.9C110.435 183.273 110.228 182.733 109.815 182.28C109.415 181.813 108.841 181.58 108.095 181.58V181.56ZM119.867 178.74V189H116.227V178.74H119.867ZM118.047 172.76C118.607 172.773 119.087 172.98 119.487 173.38C119.887 173.78 120.087 174.26 120.087 174.82C120.087 175.38 119.887 175.86 119.487 176.26C119.087 176.66 118.607 176.86 118.047 176.86C117.487 176.86 117.007 176.66 116.607 176.26C116.207 175.86 116.007 175.38 116.007 174.82C116.007 174.26 116.207 173.78 116.607 173.38C117.007 172.98 117.487 172.78 118.047 172.78V172.76ZM126.263 181.74V189H122.623V181.74H121.343V178.74H122.623V177.44C122.623 176.893 122.649 176.387 122.703 175.92C122.756 175.453 122.909 175 123.163 174.56C123.229 174.44 123.303 174.327 123.383 174.22C123.463 174.1 123.556 173.98 123.663 173.86C124.116 173.327 124.649 172.92 125.263 172.64C125.889 172.36 126.549 172.22 127.243 172.22C127.523 172.22 127.789 172.247 128.043 172.3C128.296 172.353 128.549 172.447 128.803 172.58V175.7C128.749 175.687 128.689 175.667 128.623 175.64C128.569 175.613 128.509 175.593 128.443 175.58C128.296 175.513 128.149 175.467 128.003 175.44C127.856 175.4 127.696 175.38 127.523 175.38C127.056 175.38 126.729 175.52 126.543 175.8C126.356 176.08 126.263 176.513 126.263 177.1V178.74H128.803V181.74H126.263ZM133.656 178.74V189H130.016V178.74H133.656ZM131.836 172.76C132.396 172.773 132.876 172.98 133.276 173.38C133.676 173.78 133.876 174.26 133.876 174.82C133.876 175.38 133.676 175.86 133.276 176.26C132.876 176.66 132.396 176.86 131.836 176.86C131.276 176.86 130.796 176.66 130.396 176.26C129.996 175.86 129.796 175.38 129.796 174.82C129.796 174.26 129.996 173.78 130.396 173.38C130.796 172.98 131.276 172.78 131.836 172.78V172.76ZM143.452 179V182.08C143.185 181.893 142.892 181.733 142.572 181.6C142.252 181.453 141.918 181.38 141.572 181.38C140.878 181.38 140.285 181.62 139.792 182.1C139.312 182.58 139.072 183.173 139.072 183.88C139.072 184.613 139.312 185.22 139.792 185.7C140.272 186.167 140.885 186.4 141.632 186.4C141.698 186.4 141.765 186.4 141.832 186.4C141.912 186.387 141.985 186.373 142.052 186.36C142.305 186.32 142.552 186.247 142.792 186.14C143.045 186.02 143.265 185.873 143.452 185.7V188.76C143.052 188.96 142.632 189.107 142.192 189.2C141.765 189.293 141.332 189.34 140.892 189.34C139.372 189.34 138.058 188.84 136.952 187.84C135.858 186.827 135.312 185.547 135.312 184C135.312 182.347 135.865 181.007 136.972 179.98C138.078 178.94 139.438 178.42 141.052 178.42C141.478 178.42 141.892 178.473 142.292 178.58C142.705 178.673 143.092 178.82 143.452 179.02V179ZM156.94 178.74V189H153.3V187.86H153.26C152.966 188.34 152.566 188.7 152.06 188.94C151.553 189.167 151.026 189.293 150.48 189.32C150.426 189.333 150.373 189.34 150.32 189.34C150.266 189.34 150.213 189.34 150.16 189.34C148.64 189.34 147.393 188.8 146.42 187.72C145.46 186.627 144.98 185.347 144.98 183.88C144.98 182.413 145.453 181.14 146.4 180.06C147.36 178.967 148.6 178.42 150.12 178.42C150.186 178.42 150.253 178.42 150.32 178.42C150.386 178.42 150.453 178.427 150.52 178.44C151.04 178.48 151.546 178.613 152.04 178.84C152.546 179.053 152.966 179.36 153.3 179.76V178.74H156.94ZM151.08 181.56C150.346 181.573 149.773 181.813 149.36 182.28C148.946 182.733 148.74 183.273 148.74 183.9C148.74 184.553 148.946 185.1 149.36 185.54C149.773 185.98 150.346 186.2 151.08 186.2C151.826 186.2 152.4 185.98 152.8 185.54C153.213 185.1 153.42 184.553 153.42 183.9C153.42 183.273 153.213 182.733 152.8 182.28C152.4 181.813 151.826 181.58 151.08 181.58V181.56ZM173.928 189V187.86H173.888C173.594 188.34 173.194 188.7 172.688 188.94C172.181 189.167 171.654 189.293 171.108 189.32C171.054 189.333 171.001 189.34 170.948 189.34C170.894 189.34 170.841 189.34 170.788 189.34C169.268 189.34 168.021 188.8 167.048 187.72C166.088 186.627 165.608 185.347 165.608 183.88C165.608 182.413 166.081 181.14 167.028 180.06C167.988 178.967 169.228 178.42 170.748 178.42C170.814 178.42 170.881 178.42 170.948 178.42C171.014 178.42 171.081 178.427 171.148 178.44C171.668 178.48 172.174 178.613 172.668 178.84C173.174 179.053 173.594 179.36 173.928 179.76V172.4H177.568V189H173.928ZM171.708 181.56C170.974 181.573 170.401 181.813 169.988 182.28C169.574 182.733 169.368 183.273 169.368 183.9C169.368 184.553 169.574 185.1 169.988 185.54C170.401 185.98 170.974 186.2 171.708 186.2C172.454 186.2 173.028 185.98 173.428 185.54C173.841 185.1 174.048 184.553 174.048 183.9C174.048 183.273 173.841 182.733 173.428 182.28C173.028 181.813 172.454 181.58 171.708 181.58V181.56ZM191.061 178.74V189H187.421V187.86H187.381C187.087 188.34 186.687 188.7 186.181 188.94C185.674 189.167 185.147 189.293 184.601 189.32C184.547 189.333 184.494 189.34 184.441 189.34C184.387 189.34 184.334 189.34 184.281 189.34C182.761 189.34 181.514 188.8 180.541 187.72C179.581 186.627 179.101 185.347 179.101 183.88C179.101 182.413 179.574 181.14 180.521 180.06C181.481 178.967 182.721 178.42 184.241 178.42C184.307 178.42 184.374 178.42 184.441 178.42C184.507 178.42 184.574 178.427 184.641 178.44C185.161 178.48 185.667 178.613 186.161 178.84C186.667 179.053 187.087 179.36 187.421 179.76V178.74H191.061ZM185.201 181.56C184.467 181.573 183.894 181.813 183.481 182.28C183.067 182.733 182.861 183.273 182.861 183.9C182.861 184.553 183.067 185.1 183.481 185.54C183.894 185.98 184.467 186.2 185.201 186.2C185.947 186.2 186.521 185.98 186.921 185.54C187.334 185.1 187.541 184.553 187.541 183.9C187.541 183.273 187.334 182.733 186.921 182.28C186.521 181.813 185.947 181.58 185.201 181.58V181.56ZM197.453 181.74V189H193.813V181.74H192.633V178.74H193.813V175.66H197.453V178.74H199.513V181.74H197.453ZM204.32 178.74V189H200.68V178.74H204.32ZM202.5 172.76C203.06 172.773 203.54 172.98 203.94 173.38C204.34 173.78 204.54 174.26 204.54 174.82C204.54 175.38 204.34 175.86 203.94 176.26C203.54 176.66 203.06 176.86 202.5 176.86C201.94 176.86 201.46 176.66 201.06 176.26C200.66 175.86 200.46 175.38 200.46 174.82C200.46 174.26 200.66 173.78 201.06 173.38C201.46 172.98 201.94 172.78 202.5 172.78V172.76ZM105.523 201.74H109.163V207.22C109.163 207.887 109.276 208.427 109.503 208.84C109.743 209.253 110.236 209.46 110.983 209.46C111.729 209.46 112.216 209.253 112.443 208.84C112.683 208.427 112.803 207.893 112.803 207.24V201.74H116.443V207.92C116.443 209.627 115.916 210.793 114.863 211.42C113.823 212.033 112.529 212.34 110.983 212.34C109.449 212.34 108.156 212.033 107.103 211.42C106.049 210.793 105.523 209.633 105.523 207.94V201.74ZM122.746 204.74V212H119.106V204.74H117.926V201.74H119.106V198.66H122.746V201.74H124.806V204.74H122.746ZM136.513 207.1V207.48H128.853C128.853 208.227 129.047 208.8 129.433 209.2C129.82 209.587 130.387 209.78 131.133 209.78C131.52 209.78 131.853 209.707 132.133 209.56C132.427 209.413 132.673 209.173 132.873 208.84L136.373 208.82C136.08 210.047 135.427 210.94 134.413 211.5C133.413 212.06 132.327 212.34 131.153 212.34C129.46 212.34 128.047 211.88 126.913 210.96C125.78 210.027 125.213 208.673 125.213 206.9C125.213 205.193 125.74 203.853 126.793 202.88C127.86 201.907 129.227 201.42 130.893 201.42C132.68 201.42 134.06 201.933 135.033 202.96C136.02 203.987 136.513 205.373 136.513 207.12V207.1ZM128.913 205.38H133.133C133.04 204.9 132.793 204.513 132.393 204.22C132.007 203.927 131.567 203.78 131.073 203.78C130.54 203.78 130.073 203.92 129.673 204.2C129.273 204.467 129.02 204.867 128.913 205.4V205.38ZM141.82 201.74V203.06H141.86C142.287 202.447 142.76 202.02 143.28 201.78C143.814 201.54 144.434 201.42 145.14 201.42C146.527 201.42 147.514 201.813 148.1 202.6C148.7 203.387 149 204.413 149 205.68V212H145.36V207C145.36 206.973 145.36 206.94 145.36 206.9C145.36 206.86 145.36 206.82 145.36 206.78C145.36 206.66 145.36 206.533 145.36 206.4C145.36 206.267 145.354 206.133 145.34 206C145.314 205.587 145.194 205.207 144.98 204.86C144.767 204.5 144.347 204.32 143.72 204.32C142.987 204.32 142.487 204.56 142.22 205.04C141.954 205.507 141.82 206.06 141.82 206.7V212H138.18V201.74H141.82ZM155.383 204.74V212H151.743V204.74H150.563V201.74H151.743V198.66H155.383V201.74H157.443V204.74H155.383ZM169.15 207.1V207.48H161.49C161.49 208.227 161.683 208.8 162.07 209.2C162.457 209.587 163.023 209.78 163.77 209.78C164.157 209.78 164.49 209.707 164.77 209.56C165.063 209.413 165.31 209.173 165.51 208.84L169.01 208.82C168.717 210.047 168.063 210.94 167.05 211.5C166.05 212.06 164.963 212.34 163.79 212.34C162.097 212.34 160.683 211.88 159.55 210.96C158.417 210.027 157.85 208.673 157.85 206.9C157.85 205.193 158.377 203.853 159.43 202.88C160.497 201.907 161.863 201.42 163.53 201.42C165.317 201.42 166.697 201.933 167.67 202.96C168.657 203.987 169.15 205.373 169.15 207.12V207.1ZM161.55 205.38H165.77C165.677 204.9 165.43 204.513 165.03 204.22C164.643 203.927 164.203 203.78 163.71 203.78C163.177 203.78 162.71 203.92 162.31 204.2C161.91 204.467 161.657 204.867 161.55 205.4V205.38Z" fill="#E9E9E9"/>
<path d="M114.125 70.0416C114.125 82.6534 124.388 92.9166 137 92.9166C149.612 92.9166 159.875 82.6534 159.875 70.0416C159.875 57.4299 149.612 47.1666 137 47.1666C124.388 47.1666 114.125 57.4299 114.125 70.0416ZM177.667 143.75H182.75V138.667C182.75 119.05 166.783 103.083 147.167 103.083H126.833C107.212 103.083 91.25 119.05 91.25 138.667V143.75H177.667Z" fill="#3FD0CB"/>
<path d="M219 43.5432V55H230.457L264.247 21.2101L252.79 9.75337L219 43.5432ZM273.107 8.04249L265.958 0.893458C265.675 0.610235 265.339 0.385537 264.97 0.232226C264.6 0.0789142 264.204 0 263.804 0C263.404 0 263.007 0.0789142 262.638 0.232226C262.268 0.385537 261.932 0.610235 261.65 0.893458L256.059 6.48436L267.516 17.9411L273.107 12.3502C273.39 12.0676 273.614 11.7319 273.768 11.3623C273.921 10.9927 274 10.5965 274 10.1964C274 9.79623 273.921 9.40004 273.768 9.03045C273.614 8.66086 273.39 8.32513 273.107 8.04249V8.04249Z" fill="#3FD0CB"/>
<defs>
<filter id="filter0_d" x="18" y="14" width="255" height="243" filterUnits="userSpaceOnUse" color-interpolation-filters="sRGB">
<feFlood flood-opacity="0" result="BackgroundImageFix"/>
<feColorMatrix in="SourceAlpha" type="matrix" values="0 0 0 0 0 0 0 0 0 0 0 0 0 0 0 0 0 0 127 0"/>
<feMorphology radius="3" operator="dilate" in="SourceAlpha" result="effect1_dropShadow"/>
<feOffset dx="11" dy="8"/>
<feGaussianBlur stdDeviation="2"/>
<feColorMatrix type="matrix" values="0 0 0 0 0 0 0 0 0 0 0 0 0 0 0 0 0 0 0.25 0"/>
<feBlend mode="normal" in2="BackgroundImageFix" result="effect1_dropShadow"/>
<feBlend mode="normal" in="SourceGraphic" in2="effect1_dropShadow" result="shape"/>
</filter>
</defs>
</svg>
