<svg width="274" height="266" viewBox="0 0 274 266" fill="none" xmlns="http://www.w3.org/2000/svg">
<g filter="url(#filter0_d)">
<rect x="18" y="23" width="237" height="228" rx="41.5" fill="#39304D"/>
</g>
<path d="M178.667 90.2363L172.169 70.7423C171.226 67.904 169.413 65.4351 166.987 63.6862C164.561 61.9373 161.646 60.9973 158.655 61H115.345C112.354 60.9973 109.439 61.9373 107.013 63.6862C104.587 65.4351 102.774 67.904 101.831 70.7423L95.333 90.2363C93.6051 90.9593 92.1294 92.177 91.0916 93.7363C90.0537 95.2956 89.5 97.1269 89.5 99V122.75C89.5 126.256 91.419 129.286 94.25 130.934V141.75C94.25 143.01 94.7504 144.218 95.6412 145.109C96.532 146 97.7402 146.5 99 146.5H103.75C105.01 146.5 106.218 146 107.109 145.109C108 144.218 108.5 143.01 108.5 141.75V132.25H165.5V141.75C165.5 143.01 166 144.218 166.891 145.109C167.782 146 168.99 146.5 170.25 146.5H175C176.26 146.5 177.468 146 178.359 145.109C179.25 144.218 179.75 143.01 179.75 141.75V130.934C181.191 130.108 182.389 128.916 183.223 127.479C184.057 126.042 184.497 124.411 184.5 122.75V99C184.5 97.1269 183.946 95.2956 182.908 93.7363C181.871 92.177 180.395 90.9593 178.667 90.2363ZM115.345 70.5H158.651C160.698 70.5 162.512 71.8015 163.158 73.749L168.412 89.5H105.588L110.837 73.749C111.152 72.8028 111.757 71.9798 112.566 71.3966C113.375 70.8135 114.347 70.4998 115.345 70.5V70.5ZM106.125 118C105.189 118 104.262 117.815 103.398 117.457C102.533 117.098 101.747 116.573 101.086 115.911C100.424 115.249 99.8995 114.463 99.5416 113.598C99.1837 112.733 98.9997 111.806 99 110.87C99.0003 109.934 99.185 109.008 99.5434 108.143C99.9019 107.278 100.427 106.493 101.089 105.831C101.751 105.17 102.537 104.645 103.402 104.287C104.267 103.929 105.194 103.745 106.13 103.745C108.02 103.746 109.833 104.497 111.169 105.834C112.505 107.172 113.255 108.985 113.255 110.875C113.254 112.765 112.503 114.578 111.166 115.914C109.828 117.25 108.015 118.001 106.125 118V118ZM167.875 118C166.939 118 166.012 117.815 165.148 117.457C164.283 117.098 163.497 116.573 162.836 115.911C162.174 115.249 161.65 114.463 161.292 113.598C160.934 112.733 160.75 111.806 160.75 110.87C160.75 109.934 160.935 109.008 161.293 108.143C161.652 107.278 162.177 106.493 162.839 105.831C163.501 105.17 164.287 104.645 165.152 104.287C166.017 103.929 166.944 103.745 167.88 103.745C169.77 103.746 171.583 104.497 172.919 105.834C174.255 107.172 175.005 108.985 175.005 110.875C175.004 112.765 174.253 114.578 172.916 115.914C171.578 117.25 169.765 118.001 167.875 118V118Z" fill="#3FD0CB"/>
<path d="M69.1003 204V188.92H75.1003C76.727 188.933 78.047 189.333 79.0603 190.12C80.0736 190.907 80.5803 192.167 80.5803 193.9C80.5803 195.673 80.1136 196.973 79.1803 197.8C78.2603 198.613 76.947 199.02 75.2403 199.02L73.0203 199V204H69.1003ZM73.0203 192.08V195.84H73.6803C74.387 195.853 75.0336 195.787 75.6203 195.64C76.207 195.48 76.5003 194.94 76.5003 194.02C76.5003 193.073 76.2203 192.52 75.6603 192.36C75.1003 192.187 74.4403 192.1 73.6803 192.1L73.0203 192.08ZM85.883 193.74V195.42H85.923C86.2696 194.807 86.7296 194.353 87.303 194.06C87.8896 193.767 88.5363 193.62 89.243 193.62L89.943 193.6V197.1C89.8896 197.087 89.8363 197.067 89.783 197.04C89.743 197.013 89.6963 196.993 89.643 196.98C89.443 196.9 89.243 196.847 89.043 196.82C88.843 196.793 88.6296 196.78 88.403 196.78C87.3896 196.78 86.7163 197.08 86.383 197.68C86.0496 198.267 85.883 199 85.883 199.88V204H82.243V193.74H85.883ZM101.845 199.1V199.48H94.1855C94.1855 200.227 94.3788 200.8 94.7655 201.2C95.1521 201.587 95.7188 201.78 96.4655 201.78C96.8521 201.78 97.1855 201.707 97.4655 201.56C97.7588 201.413 98.0055 201.173 98.2055 200.84L101.705 200.82C101.412 202.047 100.759 202.94 99.7455 203.5C98.7455 204.06 97.6588 204.34 96.4855 204.34C94.7921 204.34 93.3788 203.88 92.2455 202.96C91.1121 202.027 90.5455 200.673 90.5455 198.9C90.5455 197.193 91.0721 195.853 92.1255 194.88C93.1921 193.907 94.5588 193.42 96.2255 193.42C98.0121 193.42 99.3921 193.933 100.365 194.96C101.352 195.987 101.845 197.373 101.845 199.12V199.1ZM94.2455 197.38H98.4655C98.3721 196.9 98.1255 196.513 97.7255 196.22C97.3388 195.927 96.8988 195.78 96.4055 195.78C95.8721 195.78 95.4055 195.92 95.0055 196.2C94.6055 196.467 94.3521 196.867 94.2455 197.4V197.38ZM107.153 193.74V195.06H107.193C107.619 194.447 108.093 194.02 108.613 193.78C109.146 193.54 109.766 193.42 110.473 193.42C111.859 193.42 112.846 193.813 113.433 194.6C114.033 195.387 114.333 196.413 114.333 197.68V204H110.693V199C110.693 198.973 110.693 198.94 110.693 198.9C110.693 198.86 110.693 198.82 110.693 198.78C110.693 198.66 110.693 198.533 110.693 198.4C110.693 198.267 110.686 198.133 110.673 198C110.646 197.587 110.526 197.207 110.313 196.86C110.099 196.5 109.679 196.32 109.053 196.32C108.319 196.32 107.819 196.56 107.553 197.04C107.286 197.507 107.153 198.06 107.153 198.7V204H103.513V193.74H107.153ZM122.155 193.4C123.808 193.413 125.248 193.9 126.475 194.86C127.715 195.807 128.335 197.153 128.335 198.9C128.335 200.633 127.715 201.973 126.475 202.92C125.248 203.867 123.808 204.34 122.155 204.34C120.515 204.34 119.075 203.873 117.835 202.94C116.595 201.993 115.975 200.647 115.975 198.9C115.975 197.153 116.588 195.807 117.815 194.86C119.055 193.9 120.502 193.42 122.155 193.42V193.4ZM122.155 196.56C121.422 196.573 120.848 196.813 120.435 197.28C120.022 197.733 119.815 198.273 119.815 198.9C119.815 199.553 120.022 200.1 120.435 200.54C120.848 200.98 121.422 201.2 122.155 201.2C122.902 201.2 123.475 200.98 123.875 200.54C124.288 200.1 124.495 199.553 124.495 198.9C124.495 198.273 124.288 197.733 123.875 197.28C123.475 196.813 122.902 196.58 122.155 196.58V196.56ZM133.957 196.74V204H130.317V196.74H129.137V193.74H130.317V190.66H133.957V193.74H136.017V196.74H133.957ZM148.404 193.74V204H144.764V202.86H144.724C144.431 203.34 144.031 203.7 143.524 203.94C143.018 204.167 142.491 204.293 141.944 204.32C141.891 204.333 141.838 204.34 141.784 204.34C141.731 204.34 141.678 204.34 141.624 204.34C140.104 204.34 138.858 203.8 137.884 202.72C136.924 201.627 136.444 200.347 136.444 198.88C136.444 197.413 136.918 196.14 137.864 195.06C138.824 193.967 140.064 193.42 141.584 193.42C141.651 193.42 141.718 193.42 141.784 193.42C141.851 193.42 141.918 193.427 141.984 193.44C142.504 193.48 143.011 193.613 143.504 193.84C144.011 194.053 144.431 194.36 144.764 194.76V193.74H148.404ZM142.544 196.56C141.811 196.573 141.238 196.813 140.824 197.28C140.411 197.733 140.204 198.273 140.204 198.9C140.204 199.553 140.411 200.1 140.824 200.54C141.238 200.98 141.811 201.2 142.544 201.2C143.291 201.2 143.864 200.98 144.264 200.54C144.678 200.1 144.884 199.553 144.884 198.9C144.884 198.273 144.678 197.733 144.264 197.28C143.864 196.813 143.291 196.58 142.544 196.58V196.56ZM155.857 200.98H160.177V204H149.777L154.597 196.76H150.417V193.74H160.657L155.857 200.98ZM165.629 193.74V204H161.989V193.74H165.629ZM163.809 187.76C164.369 187.773 164.849 187.98 165.249 188.38C165.649 188.78 165.849 189.26 165.849 189.82C165.849 190.38 165.649 190.86 165.249 191.26C164.849 191.66 164.369 191.86 163.809 191.86C163.249 191.86 162.769 191.66 162.369 191.26C161.969 190.86 161.769 190.38 161.769 189.82C161.769 189.26 161.969 188.78 162.369 188.38C162.769 187.98 163.249 187.78 163.809 187.78V187.76ZM173.444 193.4C175.098 193.413 176.538 193.9 177.764 194.86C179.004 195.807 179.624 197.153 179.624 198.9C179.624 200.633 179.004 201.973 177.764 202.92C176.538 203.867 175.098 204.34 173.444 204.34C171.804 204.34 170.364 203.873 169.124 202.94C167.884 201.993 167.264 200.647 167.264 198.9C167.264 197.153 167.878 195.807 169.104 194.86C170.344 193.9 171.791 193.42 173.444 193.42V193.4ZM173.444 196.56C172.711 196.573 172.138 196.813 171.724 197.28C171.311 197.733 171.104 198.273 171.104 198.9C171.104 199.553 171.311 200.1 171.724 200.54C172.138 200.98 172.711 201.2 173.444 201.2C174.191 201.2 174.764 200.98 175.164 200.54C175.578 200.1 175.784 199.553 175.784 198.9C175.784 198.273 175.578 197.733 175.164 197.28C174.764 196.813 174.191 196.58 173.444 196.58V196.56ZM184.906 193.74V195.06H184.946C185.373 194.447 185.846 194.02 186.366 193.78C186.9 193.54 187.52 193.42 188.226 193.42C189.613 193.42 190.6 193.813 191.186 194.6C191.786 195.387 192.086 196.413 192.086 197.68V204H188.446V199C188.446 198.973 188.446 198.94 188.446 198.9C188.446 198.86 188.446 198.82 188.446 198.78C188.446 198.66 188.446 198.533 188.446 198.4C188.446 198.267 188.44 198.133 188.426 198C188.4 197.587 188.28 197.207 188.066 196.86C187.853 196.5 187.433 196.32 186.806 196.32C186.073 196.32 185.573 196.56 185.306 197.04C185.04 197.507 184.906 198.06 184.906 198.7V204H181.266V193.74H184.906ZM198.129 193.74V204H194.489V193.74H198.129ZM196.309 187.76C196.869 187.773 197.349 187.98 197.749 188.38C198.149 188.78 198.349 189.26 198.349 189.82C198.349 190.38 198.149 190.86 197.749 191.26C197.349 191.66 196.869 191.86 196.309 191.86C195.749 191.86 195.269 191.66 194.869 191.26C194.469 190.86 194.269 190.38 194.269 189.82C194.269 189.26 194.469 188.78 194.869 188.38C195.269 187.98 195.749 187.78 196.309 187.78V187.76ZM98.4568 222.1V222.48H90.7968C90.7968 223.227 90.9901 223.8 91.3768 224.2C91.7635 224.587 92.3301 224.78 93.0768 224.78C93.4635 224.78 93.7968 224.707 94.0768 224.56C94.3701 224.413 94.6168 224.173 94.8168 223.84L98.3168 223.82C98.0235 225.047 97.3701 225.94 96.3568 226.5C95.3568 227.06 94.2701 227.34 93.0968 227.34C91.4035 227.34 89.9901 226.88 88.8568 225.96C87.7235 225.027 87.1568 223.673 87.1568 221.9C87.1568 220.193 87.6835 218.853 88.7368 217.88C89.8035 216.907 91.1701 216.42 92.8368 216.42C94.6235 216.42 96.0035 216.933 96.9768 217.96C97.9635 218.987 98.4568 220.373 98.4568 222.12V222.1ZM90.8568 220.38H95.0768C94.9835 219.9 94.7368 219.513 94.3368 219.22C93.9501 218.927 93.5101 218.78 93.0168 218.78C92.4835 218.78 92.0168 218.92 91.6168 219.2C91.2168 219.467 90.9635 219.867 90.8568 220.4V220.38ZM104.124 219.74V227H100.484V219.74H99.2038V216.74H100.484V215.44C100.484 214.893 100.51 214.387 100.564 213.92C100.617 213.453 100.77 213 101.024 212.56C101.09 212.44 101.164 212.327 101.244 212.22C101.324 212.1 101.417 211.98 101.524 211.86C101.977 211.327 102.51 210.92 103.124 210.64C103.75 210.36 104.41 210.22 105.104 210.22C105.384 210.22 105.65 210.247 105.904 210.3C106.157 210.353 106.41 210.447 106.664 210.58V213.7C106.61 213.687 106.55 213.667 106.484 213.64C106.43 213.613 106.37 213.593 106.304 213.58C106.157 213.513 106.01 213.467 105.864 213.44C105.717 213.4 105.557 213.38 105.384 213.38C104.917 213.38 104.59 213.52 104.404 213.8C104.217 214.08 104.124 214.513 104.124 215.1V216.74H106.664V219.74H104.124ZM111.878 219.74V227H108.238V219.74H106.958V216.74H108.238V215.44C108.238 214.893 108.264 214.387 108.318 213.92C108.371 213.453 108.524 213 108.778 212.56C108.844 212.44 108.918 212.327 108.998 212.22C109.078 212.1 109.171 211.98 109.278 211.86C109.731 211.327 110.264 210.92 110.878 210.64C111.504 210.36 112.164 210.22 112.858 210.22C113.138 210.22 113.404 210.247 113.658 210.3C113.911 210.353 114.164 210.447 114.418 210.58V213.7C114.364 213.687 114.304 213.667 114.238 213.64C114.184 213.613 114.124 213.593 114.058 213.58C113.911 213.513 113.764 213.467 113.618 213.44C113.471 213.4 113.311 213.38 113.138 213.38C112.671 213.38 112.344 213.52 112.158 213.8C111.971 214.08 111.878 214.513 111.878 215.1V216.74H114.418V219.74H111.878ZM126.172 222.1V222.48H118.512C118.512 223.227 118.705 223.8 119.092 224.2C119.478 224.587 120.045 224.78 120.792 224.78C121.178 224.78 121.512 224.707 121.792 224.56C122.085 224.413 122.332 224.173 122.532 223.84L126.032 223.82C125.738 225.047 125.085 225.94 124.072 226.5C123.072 227.06 121.985 227.34 120.812 227.34C119.118 227.34 117.705 226.88 116.572 225.96C115.438 225.027 114.872 223.673 114.872 221.9C114.872 220.193 115.398 218.853 116.452 217.88C117.518 216.907 118.885 216.42 120.552 216.42C122.338 216.42 123.718 216.933 124.692 217.96C125.678 218.987 126.172 220.373 126.172 222.12V222.1ZM118.572 220.38H122.792C122.698 219.9 122.452 219.513 122.052 219.22C121.665 218.927 121.225 218.78 120.732 218.78C120.198 218.78 119.732 218.92 119.332 219.2C118.932 219.467 118.678 219.867 118.572 220.4V220.38ZM131.819 219.74V227H128.179V219.74H126.999V216.74H128.179V213.66H131.819V216.74H133.879V219.74H131.819ZM139.026 219.74V227H135.386V219.74H134.206V216.74H135.386V213.66H139.026V216.74H141.086V219.74H139.026ZM142.193 216.74H145.833V222.22C145.833 222.887 145.946 223.427 146.173 223.84C146.413 224.253 146.906 224.46 147.653 224.46C148.399 224.46 148.886 224.253 149.113 223.84C149.353 223.427 149.473 222.893 149.473 222.24V216.74H153.113V222.92C153.113 224.627 152.586 225.793 151.533 226.42C150.493 227.033 149.199 227.34 147.653 227.34C146.119 227.34 144.826 227.033 143.773 226.42C142.719 225.793 142.193 224.633 142.193 222.94V216.74ZM166.656 216.74V227H163.016V225.86H162.976C162.683 226.34 162.283 226.7 161.776 226.94C161.27 227.167 160.743 227.293 160.196 227.32C160.143 227.333 160.09 227.34 160.036 227.34C159.983 227.34 159.93 227.34 159.876 227.34C158.356 227.34 157.11 226.8 156.136 225.72C155.176 224.627 154.696 223.347 154.696 221.88C154.696 220.413 155.17 219.14 156.116 218.06C157.076 216.967 158.316 216.42 159.836 216.42C159.903 216.42 159.97 216.42 160.036 216.42C160.103 216.42 160.17 216.427 160.236 216.44C160.756 216.48 161.263 216.613 161.756 216.84C162.263 217.053 162.683 217.36 163.016 217.76V216.74H166.656ZM160.796 219.56C160.063 219.573 159.49 219.813 159.076 220.28C158.663 220.733 158.456 221.273 158.456 221.9C158.456 222.553 158.663 223.1 159.076 223.54C159.49 223.98 160.063 224.2 160.796 224.2C161.543 224.2 162.116 223.98 162.516 223.54C162.93 223.1 163.136 222.553 163.136 221.9C163.136 221.273 162.93 220.733 162.516 220.28C162.116 219.813 161.543 219.58 160.796 219.58V219.56ZM173.049 219.74V227H169.409V219.74H168.229V216.74H169.409V213.66H173.049V216.74H175.109V219.74H173.049ZM186.816 222.1V222.48H179.156C179.156 223.227 179.35 223.8 179.736 224.2C180.123 224.587 180.69 224.78 181.436 224.78C181.823 224.78 182.156 224.707 182.436 224.56C182.73 224.413 182.976 224.173 183.176 223.84L186.676 223.82C186.383 225.047 185.73 225.94 184.716 226.5C183.716 227.06 182.63 227.34 181.456 227.34C179.763 227.34 178.35 226.88 177.216 225.96C176.083 225.027 175.516 223.673 175.516 221.9C175.516 220.193 176.043 218.853 177.096 217.88C178.163 216.907 179.53 216.42 181.196 216.42C182.983 216.42 184.363 216.933 185.336 217.96C186.323 218.987 186.816 220.373 186.816 222.12V222.1ZM179.216 220.38H183.436C183.343 219.9 183.096 219.513 182.696 219.22C182.31 218.927 181.87 218.78 181.376 218.78C180.843 218.78 180.376 218.92 179.976 219.2C179.576 219.467 179.323 219.867 179.216 220.4V220.38Z" fill="#E9E9E9"/>
<path d="M260.444 3.38892H226.555C225.657 3.38892 224.795 3.74596 224.159 4.3815C223.524 5.01704 223.167 5.87902 223.167 6.7778V54.2222C223.167 55.121 223.524 55.983 224.159 56.6186C224.795 57.2541 225.657 57.6111 226.555 57.6111H260.444C261.343 57.6111 262.205 57.2541 262.841 56.6186C263.476 55.983 263.833 55.121 263.833 54.2222V6.7778C263.833 5.87902 263.476 5.01704 262.841 4.3815C262.205 3.74596 261.343 3.38892 260.444 3.38892ZM235.028 44.0556H231.639V40.6667H235.028V44.0556ZM235.028 37.2778H231.639V33.8889H235.028V37.2778ZM235.028 30.5H231.639V27.1111H235.028V30.5ZM235.028 23.7222H231.639V20.3334H235.028V23.7222ZM235.028 16.9445H231.639V13.5556H235.028V16.9445ZM255.361 44.0556H238.417V40.6667H255.361V44.0556ZM255.361 37.2778H238.417V33.8889H255.361V37.2778ZM255.361 30.5H238.417V27.1111H255.361V30.5ZM255.361 23.7222H238.417V20.3334H255.361V23.7222ZM255.361 16.9445H238.417V13.5556H255.361V16.9445Z" fill="#3FD0CB"/>
<defs>
<filter id="filter0_d" x="18" y="23" width="255" height="243" filterUnits="userSpaceOnUse" color-interpolation-filters="sRGB">
<feFlood flood-opacity="0" result="BackgroundImageFix"/>
<feColorMatrix in="SourceAlpha" type="matrix" values="0 0 0 0 0 0 0 0 0 0 0 0 0 0 0 0 0 0 127 0"/>
<feMorphology radius="3" operator="dilate" in="SourceAlpha" result="effect1_dropShadow"/>
<feOffset dx="11" dy="8"/>
<feGaussianBlur stdDeviation="2"/>
<feColorMatrix type="matrix" values="0 0 0 0 0 0 0 0 0 0 0 0 0 0 0 0 0 0 0.25 0"/>
<feBlend mode="normal" in2="BackgroundImageFix" result="effect1_dropShadow"/>
<feBlend mode="normal" in="SourceGraphic" in2="effect1_dropShadow" result="shape"/>
</filter>
</defs>
</svg>
