<svg width="274" height="259" viewBox="0 0 274 259" fill="none" xmlns="http://www.w3.org/2000/svg">
<g filter="url(#filter0_d)">
<rect x="18" y="16" width="237" height="228" rx="41.5" fill="#39304D"/>
</g>
<path d="M178.667 83.2363L172.169 63.7423C171.226 60.904 169.413 58.4351 166.987 56.6862C164.561 54.9373 161.646 53.9973 158.655 54H115.345C112.354 53.9973 109.439 54.9373 107.013 56.6862C104.587 58.4351 102.774 60.904 101.831 63.7423L95.333 83.2363C93.6051 83.9593 92.1294 85.177 91.0916 86.7363C90.0537 88.2956 89.5 90.1269 89.5 92V115.75C89.5 119.256 91.419 122.286 94.25 123.934V134.75C94.25 136.01 94.7504 137.218 95.6412 138.109C96.532 139 97.7402 139.5 99 139.5H103.75C105.01 139.5 106.218 139 107.109 138.109C108 137.218 108.5 136.01 108.5 134.75V125.25H165.5V134.75C165.5 136.01 166 137.218 166.891 138.109C167.782 139 168.99 139.5 170.25 139.5H175C176.26 139.5 177.468 139 178.359 138.109C179.25 137.218 179.75 136.01 179.75 134.75V123.934C181.191 123.108 182.389 121.916 183.223 120.479C184.057 119.042 184.497 117.411 184.5 115.75V92C184.5 90.1269 183.946 88.2956 182.908 86.7363C181.871 85.177 180.395 83.9593 178.667 83.2363ZM115.345 63.5H158.651C160.698 63.5 162.512 64.8015 163.158 66.749L168.412 82.5H105.588L110.837 66.749C111.152 65.8028 111.757 64.9798 112.566 64.3966C113.375 63.8135 114.347 63.4998 115.345 63.5V63.5ZM106.125 111C105.189 111 104.262 110.815 103.398 110.457C102.533 110.098 101.747 109.573 101.086 108.911C100.424 108.249 99.8995 107.463 99.5416 106.598C99.1837 105.733 98.9997 104.806 99 103.87C99.0003 102.934 99.185 102.008 99.5434 101.143C99.9019 100.278 100.427 99.4928 101.089 98.8311C101.751 98.1695 102.537 97.6448 103.402 97.2869C104.267 96.929 105.194 96.7449 106.13 96.7453C108.02 96.7459 109.833 97.4974 111.169 98.8345C112.505 100.172 113.255 101.985 113.255 103.875C113.254 105.765 112.503 107.578 111.166 108.914C109.828 110.25 108.015 111.001 106.125 111V111ZM167.875 111C166.939 111 166.012 110.815 165.148 110.457C164.283 110.098 163.497 109.573 162.836 108.911C162.174 108.249 161.65 107.463 161.292 106.598C160.934 105.733 160.75 104.806 160.75 103.87C160.75 102.934 160.935 102.008 161.293 101.143C161.652 100.278 162.177 99.4928 162.839 98.8311C163.501 98.1695 164.287 97.6448 165.152 97.2869C166.017 96.929 166.944 96.7449 167.88 96.7453C169.77 96.7459 171.583 97.4974 172.919 98.8345C174.255 100.172 175.005 101.985 175.005 103.875C175.004 105.765 174.253 107.578 172.916 108.914C171.578 110.25 169.765 111.001 167.875 111V111Z" fill="#3FD0CB"/>
<path d="M64.039 190.82L68.779 197H63.899L60.199 191.2H60.159V197H56.239V181.92H62.099C63.5923 181.933 64.839 182.313 65.839 183.06C66.839 183.793 67.339 184.967 67.339 186.58C67.339 187.62 67.0523 188.547 66.479 189.36C65.919 190.16 65.1057 190.653 64.039 190.84V190.82ZM60.159 184.92V188.68H60.539C60.6057 188.693 60.6723 188.7 60.739 188.7C60.8057 188.7 60.8657 188.7 60.919 188.7C61.5057 188.673 62.039 188.54 62.519 188.3C63.0123 188.047 63.259 187.553 63.259 186.82C63.259 186.087 63.0123 185.6 62.519 185.36C62.039 185.107 61.5057 184.967 60.919 184.94C60.8657 184.94 60.8057 184.94 60.739 184.94C60.6723 184.94 60.6057 184.94 60.539 184.94L60.159 184.92ZM73.3927 186.74V197H69.7527V186.74H73.3927ZM71.5727 180.76C72.1327 180.773 72.6127 180.98 73.0127 181.38C73.4127 181.78 73.6127 182.26 73.6127 182.82C73.6127 183.38 73.4127 183.86 73.0127 184.26C72.6127 184.66 72.1327 184.86 71.5727 184.86C71.0127 184.86 70.5327 184.66 70.1327 184.26C69.7327 183.86 69.5327 183.38 69.5327 182.82C69.5327 182.26 69.7327 181.78 70.1327 181.38C70.5327 180.98 71.0127 180.78 71.5727 180.78V180.76ZM79.4279 186.74V188.02H79.4679C79.8946 187.46 80.3746 187.053 80.9079 186.8C81.4546 186.547 82.0546 186.42 82.7079 186.42C83.4546 186.42 84.1279 186.58 84.7279 186.9C85.3412 187.207 85.8346 187.7 86.2079 188.38C86.5546 187.74 87.0479 187.253 87.6879 186.92C88.3279 186.587 88.9946 186.42 89.6879 186.42C90.9946 186.42 91.9012 186.8 92.4079 187.56C92.9279 188.32 93.1879 189.293 93.1879 190.48V197H89.5479V192.1C89.5479 192.1 89.5479 192.093 89.5479 192.08C89.5479 192.067 89.5479 192.053 89.5479 192.04C89.5479 191.907 89.5479 191.76 89.5479 191.6C89.5479 191.44 89.5412 191.28 89.5279 191.12C89.4879 190.667 89.3679 190.253 89.1679 189.88C88.9812 189.507 88.6079 189.32 88.0479 189.32C87.3679 189.32 86.9146 189.54 86.6879 189.98C86.4746 190.42 86.3546 190.9 86.3279 191.42C86.3146 191.54 86.3079 191.66 86.3079 191.78C86.3079 191.9 86.3079 192.013 86.3079 192.12V197H82.6679V192.1C82.6679 191.967 82.6679 191.82 82.6679 191.66C82.6679 191.5 82.6612 191.333 82.6479 191.16C82.6079 190.68 82.4812 190.24 82.2679 189.84C82.0546 189.44 81.6479 189.24 81.0479 189.24C80.4479 189.24 80.0412 189.44 79.8279 189.84C79.6146 190.24 79.4879 190.68 79.4479 191.16C79.4346 191.333 79.4279 191.5 79.4279 191.66C79.4279 191.82 79.4279 191.973 79.4279 192.12V197H75.7879V186.74H79.4279ZM95.513 186.74H99.153V192.22C99.153 192.887 99.2664 193.427 99.493 193.84C99.733 194.253 100.226 194.46 100.973 194.46C101.72 194.46 102.206 194.253 102.433 193.84C102.673 193.427 102.793 192.893 102.793 192.24V186.74H106.433V192.92C106.433 194.627 105.906 195.793 104.853 196.42C103.813 197.033 102.52 197.34 100.973 197.34C99.4397 197.34 98.1464 197.033 97.093 196.42C96.0397 195.793 95.513 194.633 95.513 192.94V186.74ZM114.177 186.4C115.83 186.413 117.27 186.9 118.497 187.86C119.737 188.807 120.357 190.153 120.357 191.9C120.357 193.633 119.737 194.973 118.497 195.92C117.27 196.867 115.83 197.34 114.177 197.34C112.537 197.34 111.097 196.873 109.857 195.94C108.617 194.993 107.997 193.647 107.997 191.9C107.997 190.153 108.61 188.807 109.837 187.86C111.077 186.9 112.523 186.42 114.177 186.42V186.4ZM114.177 189.56C113.443 189.573 112.87 189.813 112.457 190.28C112.043 190.733 111.837 191.273 111.837 191.9C111.837 192.553 112.043 193.1 112.457 193.54C112.87 193.98 113.443 194.2 114.177 194.2C114.923 194.2 115.497 193.98 115.897 193.54C116.31 193.1 116.517 192.553 116.517 191.9C116.517 191.273 116.31 190.733 115.897 190.28C115.497 189.813 114.923 189.58 114.177 189.58V189.56ZM124.579 186.74L127.039 192L129.479 186.74H133.559L128.199 197H125.879L120.499 186.74H124.579ZM138.1 186.74V197H134.46V186.74H138.1ZM136.28 180.76C136.84 180.773 137.32 180.98 137.72 181.38C138.12 181.78 138.32 182.26 138.32 182.82C138.32 183.38 138.12 183.86 137.72 184.26C137.32 184.66 136.84 184.86 136.28 184.86C135.72 184.86 135.24 184.66 134.84 184.26C134.44 183.86 134.24 183.38 134.24 182.82C134.24 182.26 134.44 181.78 134.84 181.38C135.24 180.98 135.72 180.78 136.28 180.78V180.76ZM149.93 186.74L152.39 192L154.83 186.74H158.91L153.55 197H151.23L145.85 186.74H149.93ZM170.351 192.1V192.48H162.691C162.691 193.227 162.885 193.8 163.271 194.2C163.658 194.587 164.225 194.78 164.971 194.78C165.358 194.78 165.691 194.707 165.971 194.56C166.265 194.413 166.511 194.173 166.711 193.84L170.211 193.82C169.918 195.047 169.265 195.94 168.251 196.5C167.251 197.06 166.165 197.34 164.991 197.34C163.298 197.34 161.885 196.88 160.751 195.96C159.618 195.027 159.051 193.673 159.051 191.9C159.051 190.193 159.578 188.853 160.631 187.88C161.698 186.907 163.065 186.42 164.731 186.42C166.518 186.42 167.898 186.933 168.871 187.96C169.858 188.987 170.351 190.373 170.351 192.12V192.1ZM162.751 190.38H166.971C166.878 189.9 166.631 189.513 166.231 189.22C165.845 188.927 165.405 188.78 164.911 188.78C164.378 188.78 163.911 188.92 163.511 189.2C163.111 189.467 162.858 189.867 162.751 190.4V190.38ZM175.658 186.74V197H172.018V186.74H175.658ZM173.838 180.76C174.398 180.773 174.878 180.98 175.278 181.38C175.678 181.78 175.878 182.26 175.878 182.82C175.878 183.38 175.678 183.86 175.278 184.26C174.878 184.66 174.398 184.86 173.838 184.86C173.278 184.86 172.798 184.66 172.398 184.26C171.998 183.86 171.798 183.38 171.798 182.82C171.798 182.26 171.998 181.78 172.398 181.38C172.798 180.98 173.278 180.78 173.838 180.78V180.76ZM185.454 187V190.08C185.187 189.893 184.894 189.733 184.574 189.6C184.254 189.453 183.92 189.38 183.574 189.38C182.88 189.38 182.287 189.62 181.794 190.1C181.314 190.58 181.074 191.173 181.074 191.88C181.074 192.613 181.314 193.22 181.794 193.7C182.274 194.167 182.887 194.4 183.634 194.4C183.7 194.4 183.767 194.4 183.834 194.4C183.914 194.387 183.987 194.373 184.054 194.36C184.307 194.32 184.554 194.247 184.794 194.14C185.047 194.02 185.267 193.873 185.454 193.7V196.76C185.054 196.96 184.634 197.107 184.194 197.2C183.767 197.293 183.334 197.34 182.894 197.34C181.374 197.34 180.06 196.84 178.954 195.84C177.86 194.827 177.314 193.547 177.314 192C177.314 190.347 177.867 189.007 178.974 187.98C180.08 186.94 181.44 186.42 183.054 186.42C183.48 186.42 183.894 186.473 184.294 186.58C184.707 186.673 185.094 186.82 185.454 187.02V187ZM193.141 186.4C194.795 186.413 196.235 186.9 197.461 187.86C198.701 188.807 199.321 190.153 199.321 191.9C199.321 193.633 198.701 194.973 197.461 195.92C196.235 196.867 194.795 197.34 193.141 197.34C191.501 197.34 190.061 196.873 188.821 195.94C187.581 194.993 186.961 193.647 186.961 191.9C186.961 190.153 187.575 188.807 188.801 187.86C190.041 186.9 191.488 186.42 193.141 186.42V186.4ZM193.141 189.56C192.408 189.573 191.835 189.813 191.421 190.28C191.008 190.733 190.801 191.273 190.801 191.9C190.801 192.553 191.008 193.1 191.421 193.54C191.835 193.98 192.408 194.2 193.141 194.2C193.888 194.2 194.461 193.98 194.861 193.54C195.275 193.1 195.481 192.553 195.481 191.9C195.481 191.273 195.275 190.733 194.861 190.28C194.461 189.813 193.888 189.58 193.141 189.58V189.56ZM204.604 180.4V197H200.964V180.4H204.604ZM212.419 186.4C214.072 186.413 215.512 186.9 216.739 187.86C217.979 188.807 218.599 190.153 218.599 191.9C218.599 193.633 217.979 194.973 216.739 195.92C215.512 196.867 214.072 197.34 212.419 197.34C210.779 197.34 209.339 196.873 208.099 195.94C206.859 194.993 206.239 193.647 206.239 191.9C206.239 190.153 206.852 188.807 208.079 187.86C209.319 186.9 210.765 186.42 212.419 186.42V186.4ZM212.419 189.56C211.685 189.573 211.112 189.813 210.699 190.28C210.285 190.733 210.079 191.273 210.079 191.9C210.079 192.553 210.285 193.1 210.699 193.54C211.112 193.98 211.685 194.2 212.419 194.2C213.165 194.2 213.739 193.98 214.139 193.54C214.552 193.1 214.759 192.553 214.759 191.9C214.759 191.273 214.552 190.733 214.139 190.28C213.739 189.813 213.165 189.58 212.419 189.58V189.56Z" fill="#E9E9E9"/>
<path fill-rule="evenodd" clip-rule="evenodd" d="M247 0C232.089 0 220 12.0886 220 27C220 41.9114 232.089 54 247 54C261.911 54 274 41.9114 274 27C274 12.0886 261.911 0 247 0ZM256.099 21.3717C256.546 20.9088 256.794 20.2888 256.788 19.6452C256.782 19.0016 256.524 18.386 256.069 17.9309C255.614 17.4758 254.998 17.2177 254.355 17.2121C253.711 17.2065 253.091 17.4539 252.628 17.901L247 23.5293L241.372 17.901C241.145 17.6666 240.874 17.4796 240.575 17.3509C240.276 17.2223 239.953 17.1546 239.628 17.1517C239.302 17.1489 238.978 17.211 238.677 17.3344C238.375 17.4579 238.101 17.6401 237.871 17.8706C237.64 18.101 237.458 18.3751 237.334 18.6767C237.211 18.9784 237.149 19.3016 237.152 19.6275C237.155 19.9534 237.222 20.2755 237.351 20.575C237.48 20.8745 237.667 21.1453 237.901 21.3717L243.529 27L237.901 32.6283C237.667 32.8547 237.48 33.1255 237.351 33.425C237.222 33.7245 237.155 34.0466 237.152 34.3725C237.149 34.6984 237.211 35.0216 237.334 35.3233C237.458 35.6249 237.64 35.899 237.871 36.1294C238.101 36.3599 238.375 36.5421 238.677 36.6656C238.978 36.789 239.302 36.8511 239.628 36.8483C239.953 36.8454 240.276 36.7777 240.575 36.6491C240.874 36.5204 241.145 36.3334 241.372 36.099L247 30.4707L252.628 36.099C253.091 36.5461 253.711 36.7935 254.355 36.7879C254.998 36.7823 255.614 36.5242 256.069 36.0691C256.524 35.614 256.782 34.9984 256.788 34.3548C256.794 33.7112 256.546 33.0912 256.099 32.6283L250.471 27L256.099 21.3717Z" fill="#3FD0CB"/>
<defs>
<filter id="filter0_d" x="18" y="16" width="255" height="243" filterUnits="userSpaceOnUse" color-interpolation-filters="sRGB">
<feFlood flood-opacity="0" result="BackgroundImageFix"/>
<feColorMatrix in="SourceAlpha" type="matrix" values="0 0 0 0 0 0 0 0 0 0 0 0 0 0 0 0 0 0 127 0"/>
<feMorphology radius="3" operator="dilate" in="SourceAlpha" result="effect1_dropShadow"/>
<feOffset dx="11" dy="8"/>
<feGaussianBlur stdDeviation="2"/>
<feColorMatrix type="matrix" values="0 0 0 0 0 0 0 0 0 0 0 0 0 0 0 0 0 0 0.25 0"/>
<feBlend mode="normal" in2="BackgroundImageFix" result="effect1_dropShadow"/>
<feBlend mode="normal" in="SourceGraphic" in2="effect1_dropShadow" result="shape"/>
</filter>
</defs>
</svg>
