<svg width="274" height="256" viewBox="0 0 274 256" fill="none" xmlns="http://www.w3.org/2000/svg">
<g filter="url(#filter0_d)">
<rect x="18" y="13" width="237" height="228" rx="41.5" fill="#39304D"/>
</g>
<path d="M66.6757 181.82L71.4157 188H66.5357L62.8357 182.2H62.7957V188H58.8757V172.92H64.7357C66.229 172.933 67.4757 173.313 68.4757 174.06C69.4757 174.793 69.9757 175.967 69.9757 177.58C69.9757 178.62 69.689 179.547 69.1157 180.36C68.5557 181.16 67.7424 181.653 66.6757 181.84V181.82ZM62.7957 175.92V179.68H63.1757C63.2424 179.693 63.309 179.7 63.3757 179.7C63.4424 179.7 63.5024 179.7 63.5557 179.7C64.1424 179.673 64.6757 179.54 65.1557 179.3C65.649 179.047 65.8957 178.553 65.8957 177.82C65.8957 177.087 65.649 176.6 65.1557 176.36C64.6757 176.107 64.1424 175.967 63.5557 175.94C63.5024 175.94 63.4424 175.94 63.3757 175.94C63.309 175.94 63.2424 175.94 63.1757 175.94L62.7957 175.92ZM76.0295 177.74V188H72.3895V177.74H76.0295ZM74.2095 171.76C74.7695 171.773 75.2495 171.98 75.6495 172.38C76.0495 172.78 76.2495 173.26 76.2495 173.82C76.2495 174.38 76.0495 174.86 75.6495 175.26C75.2495 175.66 74.7695 175.86 74.2095 175.86C73.6495 175.86 73.1695 175.66 72.7695 175.26C72.3695 174.86 72.1695 174.38 72.1695 173.82C72.1695 173.26 72.3695 172.78 72.7695 172.38C73.1695 171.98 73.6495 171.78 74.2095 171.78V171.76ZM82.0646 177.74V179.02H82.1046C82.5313 178.46 83.0113 178.053 83.5446 177.8C84.0913 177.547 84.6913 177.42 85.3446 177.42C86.0913 177.42 86.7646 177.58 87.3646 177.9C87.9779 178.207 88.4713 178.7 88.8446 179.38C89.1913 178.74 89.6846 178.253 90.3246 177.92C90.9646 177.587 91.6313 177.42 92.3246 177.42C93.6313 177.42 94.5379 177.8 95.0446 178.56C95.5646 179.32 95.8246 180.293 95.8246 181.48V188H92.1846V183.1C92.1846 183.1 92.1846 183.093 92.1846 183.08C92.1846 183.067 92.1846 183.053 92.1846 183.04C92.1846 182.907 92.1846 182.76 92.1846 182.6C92.1846 182.44 92.1779 182.28 92.1646 182.12C92.1246 181.667 92.0046 181.253 91.8046 180.88C91.6179 180.507 91.2446 180.32 90.6846 180.32C90.0046 180.32 89.5513 180.54 89.3246 180.98C89.1113 181.42 88.9913 181.9 88.9646 182.42C88.9513 182.54 88.9446 182.66 88.9446 182.78C88.9446 182.9 88.9446 183.013 88.9446 183.12V188H85.3046V183.1C85.3046 182.967 85.3046 182.82 85.3046 182.66C85.3046 182.5 85.2979 182.333 85.2846 182.16C85.2446 181.68 85.1179 181.24 84.9046 180.84C84.6913 180.44 84.2846 180.24 83.6846 180.24C83.0846 180.24 82.6779 180.44 82.4646 180.84C82.2513 181.24 82.1246 181.68 82.0846 182.16C82.0713 182.333 82.0646 182.5 82.0646 182.66C82.0646 182.82 82.0646 182.973 82.0646 183.12V188H78.4246V177.74H82.0646ZM98.1498 177.74H101.79V183.22C101.79 183.887 101.903 184.427 102.13 184.84C102.37 185.253 102.863 185.46 103.61 185.46C104.356 185.46 104.843 185.253 105.07 184.84C105.31 184.427 105.43 183.893 105.43 183.24V177.74H109.07V183.92C109.07 185.627 108.543 186.793 107.49 187.42C106.45 188.033 105.156 188.34 103.61 188.34C102.076 188.34 100.783 188.033 99.7298 187.42C98.6764 186.793 98.1498 185.633 98.1498 183.94V177.74ZM116.813 177.4C118.467 177.413 119.907 177.9 121.133 178.86C122.373 179.807 122.993 181.153 122.993 182.9C122.993 184.633 122.373 185.973 121.133 186.92C119.907 187.867 118.467 188.34 116.813 188.34C115.173 188.34 113.733 187.873 112.493 186.94C111.253 185.993 110.633 184.647 110.633 182.9C110.633 181.153 111.247 179.807 112.473 178.86C113.713 177.9 115.16 177.42 116.813 177.42V177.4ZM116.813 180.56C116.08 180.573 115.507 180.813 115.093 181.28C114.68 181.733 114.473 182.273 114.473 182.9C114.473 183.553 114.68 184.1 115.093 184.54C115.507 184.98 116.08 185.2 116.813 185.2C117.56 185.2 118.133 184.98 118.533 184.54C118.947 184.1 119.153 183.553 119.153 182.9C119.153 182.273 118.947 181.733 118.533 181.28C118.133 180.813 117.56 180.58 116.813 180.58V180.56ZM127.216 177.74L129.676 183L132.116 177.74H136.196L130.836 188H128.516L123.136 177.74H127.216ZM140.736 177.74V188H137.096V177.74H140.736ZM138.916 171.76C139.476 171.773 139.956 171.98 140.356 172.38C140.756 172.78 140.956 173.26 140.956 173.82C140.956 174.38 140.756 174.86 140.356 175.26C139.956 175.66 139.476 175.86 138.916 175.86C138.356 175.86 137.876 175.66 137.476 175.26C137.076 174.86 136.876 174.38 136.876 173.82C136.876 173.26 137.076 172.78 137.476 172.38C137.876 171.98 138.356 171.78 138.916 171.78V171.76ZM159.227 172.92H163.147V181.4C163.147 182.387 163.067 183.34 162.907 184.26C162.76 185.18 162.314 186.007 161.567 186.74C161.087 187.22 160.514 187.587 159.847 187.84C159.194 188.08 158.52 188.24 157.827 188.32C157.614 188.347 157.4 188.367 157.187 188.38C156.974 188.393 156.767 188.4 156.567 188.4C156.367 188.4 156.16 188.393 155.947 188.38C155.734 188.367 155.52 188.347 155.307 188.32C154.614 188.24 153.934 188.08 153.267 187.84C152.614 187.587 152.047 187.22 151.567 186.74C150.82 186.007 150.367 185.18 150.207 184.26C150.06 183.34 149.987 182.393 149.987 181.42V172.92H153.907V180.86C153.907 180.953 153.907 181.04 153.907 181.12C153.907 181.187 153.907 181.26 153.907 181.34C153.92 182.247 154.074 183.08 154.367 183.84C154.674 184.6 155.407 184.98 156.567 184.98C157.727 184.98 158.454 184.6 158.747 183.84C159.054 183.08 159.214 182.247 159.227 181.34C159.227 181.26 159.227 181.187 159.227 181.12C159.227 181.04 159.227 180.96 159.227 180.88V172.92ZM169.534 180.74V188H165.894V180.74H164.714V177.74H165.894V174.66H169.534V177.74H171.594V180.74H169.534ZM183.301 183.1V183.48H175.641C175.641 184.227 175.834 184.8 176.221 185.2C176.607 185.587 177.174 185.78 177.921 185.78C178.307 185.78 178.641 185.707 178.921 185.56C179.214 185.413 179.461 185.173 179.661 184.84L183.161 184.82C182.867 186.047 182.214 186.94 181.201 187.5C180.201 188.06 179.114 188.34 177.941 188.34C176.247 188.34 174.834 187.88 173.701 186.96C172.567 186.027 172.001 184.673 172.001 182.9C172.001 181.193 172.527 179.853 173.581 178.88C174.647 177.907 176.014 177.42 177.681 177.42C179.467 177.42 180.847 177.933 181.821 178.96C182.807 179.987 183.301 181.373 183.301 183.12V183.1ZM175.701 181.38H179.921C179.827 180.9 179.581 180.513 179.181 180.22C178.794 179.927 178.354 179.78 177.861 179.78C177.327 179.78 176.861 179.92 176.461 180.2C176.061 180.467 175.807 180.867 175.701 181.4V181.38ZM188.608 177.74V179.06H188.648C189.074 178.447 189.548 178.02 190.068 177.78C190.601 177.54 191.221 177.42 191.928 177.42C193.314 177.42 194.301 177.813 194.888 178.6C195.488 179.387 195.788 180.413 195.788 181.68V188H192.148V183C192.148 182.973 192.148 182.94 192.148 182.9C192.148 182.86 192.148 182.82 192.148 182.78C192.148 182.66 192.148 182.533 192.148 182.4C192.148 182.267 192.141 182.133 192.128 182C192.101 181.587 191.981 181.207 191.768 180.86C191.554 180.5 191.134 180.32 190.508 180.32C189.774 180.32 189.274 180.56 189.008 181.04C188.741 181.507 188.608 182.06 188.608 182.7V188H184.968V177.74H188.608ZM202.17 180.74V188H198.53V180.74H197.35V177.74H198.53V174.66H202.17V177.74H204.23V180.74H202.17ZM215.937 183.1V183.48H208.277C208.277 184.227 208.471 184.8 208.857 185.2C209.244 185.587 209.811 185.78 210.557 185.78C210.944 185.78 211.277 185.707 211.557 185.56C211.851 185.413 212.097 185.173 212.297 184.84L215.797 184.82C215.504 186.047 214.851 186.94 213.837 187.5C212.837 188.06 211.751 188.34 210.577 188.34C208.884 188.34 207.471 187.88 206.337 186.96C205.204 186.027 204.637 184.673 204.637 182.9C204.637 181.193 205.164 179.853 206.217 178.88C207.284 177.907 208.651 177.42 210.317 177.42C212.104 177.42 213.484 177.933 214.457 178.96C215.444 179.987 215.937 181.373 215.937 183.12V183.1ZM208.337 181.38H212.557C212.464 180.9 212.217 180.513 211.817 180.22C211.431 179.927 210.991 179.78 210.497 179.78C209.964 179.78 209.497 179.92 209.097 180.2C208.697 180.467 208.444 180.867 208.337 181.4V181.38Z" fill="#E9E9E9"/>
<path d="M114.125 69.0416C114.125 81.6534 124.388 91.9166 137 91.9166C149.612 91.9166 159.875 81.6534 159.875 69.0416C159.875 56.4299 149.612 46.1666 137 46.1666C124.388 46.1666 114.125 56.4299 114.125 69.0416ZM177.667 142.75H182.75V137.667C182.75 118.05 166.783 102.083 147.167 102.083H126.833C107.212 102.083 91.25 118.05 91.25 137.667V142.75H177.667Z" fill="#3FD0CB"/>
<path fill-rule="evenodd" clip-rule="evenodd" d="M247 0C232.089 0 220 12.0886 220 27C220 41.9114 232.089 54 247 54C261.911 54 274 41.9114 274 27C274 12.0886 261.911 0 247 0ZM256.099 21.3717C256.546 20.9088 256.794 20.2888 256.788 19.6452C256.782 19.0016 256.524 18.386 256.069 17.9309C255.614 17.4758 254.998 17.2177 254.355 17.2121C253.711 17.2065 253.091 17.4539 252.628 17.901L247 23.5293L241.372 17.901C241.145 17.6666 240.874 17.4796 240.575 17.3509C240.276 17.2223 239.953 17.1546 239.628 17.1517C239.302 17.1489 238.978 17.211 238.677 17.3344C238.375 17.4579 238.101 17.6401 237.871 17.8706C237.64 18.101 237.458 18.3751 237.334 18.6767C237.211 18.9784 237.149 19.3016 237.152 19.6275C237.155 19.9534 237.222 20.2755 237.351 20.575C237.48 20.8745 237.667 21.1453 237.901 21.3717L243.529 27L237.901 32.6283C237.667 32.8547 237.48 33.1255 237.351 33.425C237.222 33.7245 237.155 34.0466 237.152 34.3725C237.149 34.6984 237.211 35.0216 237.334 35.3233C237.458 35.6249 237.64 35.899 237.871 36.1294C238.101 36.3599 238.375 36.5421 238.677 36.6656C238.978 36.789 239.302 36.8511 239.628 36.8483C239.953 36.8454 240.276 36.7777 240.575 36.6491C240.874 36.5204 241.145 36.3334 241.372 36.099L247 30.4707L252.628 36.099C253.091 36.5461 253.711 36.7935 254.355 36.7879C254.998 36.7823 255.614 36.5242 256.069 36.0691C256.524 35.614 256.782 34.9984 256.788 34.3548C256.794 33.7112 256.546 33.0912 256.099 32.6283L250.471 27L256.099 21.3717Z" fill="#3FD0CB"/>
<defs>
<filter id="filter0_d" x="18" y="13" width="255" height="243" filterUnits="userSpaceOnUse" color-interpolation-filters="sRGB">
<feFlood flood-opacity="0" result="BackgroundImageFix"/>
<feColorMatrix in="SourceAlpha" type="matrix" values="0 0 0 0 0 0 0 0 0 0 0 0 0 0 0 0 0 0 127 0"/>
<feMorphology radius="3" operator="dilate" in="SourceAlpha" result="effect1_dropShadow"/>
<feOffset dx="11" dy="8"/>
<feGaussianBlur stdDeviation="2"/>
<feColorMatrix type="matrix" values="0 0 0 0 0 0 0 0 0 0 0 0 0 0 0 0 0 0 0.25 0"/>
<feBlend mode="normal" in2="BackgroundImageFix" result="effect1_dropShadow"/>
<feBlend mode="normal" in="SourceGraphic" in2="effect1_dropShadow" result="shape"/>
</filter>
</defs>
</svg>
