<svg width="444" height="345" viewBox="0 0 444 345" fill="none" xmlns="http://www.w3.org/2000/svg">
<g filter="url(#filter0_d)">
<path d="M222.5 131C258.675 131 288 101.675 288 65.5C288 29.3253 258.675 0 222.5 0C186.325 0 157 29.3253 157 65.5C157 101.675 186.325 131 222.5 131Z" fill="#43AAA6"/>
<path d="M246.767 19.5828C246.767 23.2363 246.81 26.5756 246.745 29.9149C246.715 31.3032 245.722 32.0193 244.494 32.4869C242.587 33.2103 240.585 33.7145 238.824 34.6717C238.853 35.4317 239.372 35.607 239.745 35.892C248.893 42.9506 252.919 52.1866 250.179 63.4906C247.432 74.8091 239.547 81.5827 228.309 83.7383C216.223 86.0619 205.928 82.2623 198.708 72.0617C189.129 58.5072 194.638 40.1958 210.21 33.1007C213.629 31.5443 217.224 30.3606 220.761 29.06C228.463 26.2175 236.171 23.4116 243.88 20.5911C244.735 20.2842 245.59 19.9993 246.767 19.5828ZM221.894 72.5074C230.297 73.0335 237.538 66.5449 238.049 58.0176C238.532 49.958 231.955 42.7971 223.545 42.2272C214.945 41.6499 207.572 48.1166 206.995 56.7389C206.454 64.8935 213.132 71.9594 221.894 72.5074Z" fill="white"/>
<path d="M244.954 84.4471C244.867 87.3188 245.239 90.1758 244.633 92.9744C244.056 95.6414 242.236 97.2271 239.708 98.1477C229.763 101.772 219.833 105.426 209.895 109.072C207.857 109.817 205.825 110.562 203.473 111.417C203.495 108.027 203.136 104.951 203.685 101.904C204.021 100.048 205.27 98.725 207.024 98.0747C219.409 93.5078 231.816 88.9848 244.216 84.4544C244.377 84.396 244.567 84.4471 244.954 84.4471Z" fill="white"/>
</g>
<g filter="url(#filter1_d)">
<path d="M141.265 224.664C141.265 225.987 141.03 226.968 140.561 227.608C140.091 228.248 139.345 228.867 138.321 229.464C137.723 229.805 136.977 230.147 136.081 230.488C135.185 230.787 134.203 231.043 133.137 231.256C132.07 231.512 130.939 231.704 129.745 231.832C128.593 231.96 127.441 232.024 126.289 232.024C123.217 232.024 120.337 231.619 117.649 230.808C114.961 229.955 112.614 228.696 110.609 227.032C108.646 225.325 107.089 223.213 105.937 220.696C104.785 218.179 104.209 215.256 104.209 211.928C104.209 208.429 104.827 205.379 106.065 202.776C107.345 200.173 109.009 198.019 111.057 196.312C113.147 194.563 115.515 193.261 118.161 192.408C120.849 191.555 123.601 191.128 126.417 191.128C130.47 191.128 133.67 191.789 136.017 193.112C138.406 194.392 139.601 196.077 139.601 198.168C139.601 199.277 139.323 200.237 138.769 201.048C138.214 201.859 137.574 202.499 136.849 202.968C135.782 202.328 134.438 201.709 132.817 201.112C131.238 200.472 129.446 200.152 127.441 200.152C123.857 200.152 120.998 201.176 118.865 203.224C116.774 205.272 115.729 208.109 115.729 211.736C115.729 213.699 116.006 215.405 116.561 216.856C117.158 218.264 117.947 219.437 118.929 220.376C119.91 221.272 121.041 221.955 122.321 222.424C123.601 222.851 124.966 223.064 126.417 223.064C127.355 223.064 128.187 222.979 128.913 222.808C129.638 222.637 130.193 222.445 130.577 222.232V216.216H123.729C123.473 215.747 123.217 215.128 122.961 214.36C122.747 213.592 122.641 212.781 122.641 211.928C122.641 210.392 122.982 209.283 123.665 208.6C124.39 207.917 125.307 207.576 126.417 207.576H137.233C138.513 207.576 139.494 207.939 140.177 208.664C140.902 209.347 141.265 210.328 141.265 211.608V224.664ZM146.709 211.544C146.709 208.216 147.221 205.272 148.245 202.712C149.311 200.152 150.741 198.019 152.533 196.312C154.367 194.563 156.501 193.24 158.933 192.344C161.407 191.448 164.074 191 166.933 191C169.791 191 172.437 191.448 174.869 192.344C177.343 193.24 179.498 194.563 181.333 196.312C183.167 198.019 184.597 200.152 185.621 202.712C186.687 205.272 187.221 208.216 187.221 211.544C187.221 214.872 186.709 217.837 185.685 220.44C184.661 223 183.231 225.155 181.397 226.904C179.605 228.611 177.471 229.912 174.997 230.808C172.522 231.704 169.834 232.152 166.933 232.152C164.031 232.152 161.343 231.704 158.869 230.808C156.394 229.869 154.261 228.525 152.469 226.776C150.677 225.027 149.269 222.872 148.245 220.312C147.221 217.752 146.709 214.829 146.709 211.544ZM158.229 211.544C158.229 215.427 159.018 218.328 160.597 220.248C162.175 222.168 164.287 223.128 166.933 223.128C169.621 223.128 171.754 222.168 173.333 220.248C174.911 218.328 175.701 215.427 175.701 211.544C175.701 207.704 174.911 204.824 173.333 202.904C171.797 200.984 169.685 200.024 166.997 200.024C164.351 200.024 162.218 200.984 160.597 202.904C159.018 204.781 158.229 207.661 158.229 211.544ZM228.765 224.664C228.765 225.987 228.53 226.968 228.061 227.608C227.591 228.248 226.845 228.867 225.821 229.464C225.223 229.805 224.477 230.147 223.581 230.488C222.685 230.787 221.703 231.043 220.637 231.256C219.57 231.512 218.439 231.704 217.245 231.832C216.093 231.96 214.941 232.024 213.789 232.024C210.717 232.024 207.837 231.619 205.149 230.808C202.461 229.955 200.114 228.696 198.109 227.032C196.146 225.325 194.589 223.213 193.437 220.696C192.285 218.179 191.709 215.256 191.709 211.928C191.709 208.429 192.327 205.379 193.565 202.776C194.845 200.173 196.509 198.019 198.557 196.312C200.647 194.563 203.015 193.261 205.661 192.408C208.349 191.555 211.101 191.128 213.917 191.128C217.97 191.128 221.17 191.789 223.517 193.112C225.906 194.392 227.101 196.077 227.101 198.168C227.101 199.277 226.823 200.237 226.269 201.048C225.714 201.859 225.074 202.499 224.349 202.968C223.282 202.328 221.938 201.709 220.317 201.112C218.738 200.472 216.946 200.152 214.941 200.152C211.357 200.152 208.498 201.176 206.365 203.224C204.274 205.272 203.229 208.109 203.229 211.736C203.229 213.699 203.506 215.405 204.061 216.856C204.658 218.264 205.447 219.437 206.429 220.376C207.41 221.272 208.541 221.955 209.821 222.424C211.101 222.851 212.466 223.064 213.917 223.064C214.855 223.064 215.687 222.979 216.413 222.808C217.138 222.637 217.693 222.445 218.077 222.232V216.216H211.229C210.973 215.747 210.717 215.128 210.461 214.36C210.247 213.592 210.141 212.781 210.141 211.928C210.141 210.392 210.482 209.283 211.165 208.6C211.89 207.917 212.807 207.576 213.917 207.576H224.733C226.013 207.576 226.994 207.939 227.677 208.664C228.402 209.347 228.765 210.328 228.765 211.608V224.664ZM234.209 211.544C234.209 208.216 234.721 205.272 235.745 202.712C236.811 200.152 238.241 198.019 240.033 196.312C241.867 194.563 244.001 193.24 246.433 192.344C248.907 191.448 251.574 191 254.433 191C257.291 191 259.937 191.448 262.369 192.344C264.843 193.24 266.998 194.563 268.833 196.312C270.667 198.019 272.097 200.152 273.121 202.712C274.187 205.272 274.721 208.216 274.721 211.544C274.721 214.872 274.209 217.837 273.185 220.44C272.161 223 270.731 225.155 268.897 226.904C267.105 228.611 264.971 229.912 262.497 230.808C260.022 231.704 257.334 232.152 254.433 232.152C251.531 232.152 248.843 231.704 246.369 230.808C243.894 229.869 241.761 228.525 239.969 226.776C238.177 225.027 236.769 222.872 235.745 220.312C234.721 217.752 234.209 214.829 234.209 211.544ZM245.729 211.544C245.729 215.427 246.518 218.328 248.097 220.248C249.675 222.168 251.787 223.128 254.433 223.128C257.121 223.128 259.254 222.168 260.833 220.248C262.411 218.328 263.201 215.427 263.201 211.544C263.201 207.704 262.411 204.824 260.833 202.904C259.297 200.984 257.185 200.024 254.497 200.024C251.851 200.024 249.718 200.984 248.097 202.904C246.518 204.781 245.729 207.661 245.729 211.544ZM279.209 211.544C279.209 208.216 279.721 205.272 280.745 202.712C281.811 200.152 283.241 198.019 285.033 196.312C286.867 194.563 289.001 193.24 291.433 192.344C293.907 191.448 296.574 191 299.433 191C302.291 191 304.937 191.448 307.369 192.344C309.843 193.24 311.998 194.563 313.833 196.312C315.667 198.019 317.097 200.152 318.121 202.712C319.187 205.272 319.721 208.216 319.721 211.544C319.721 214.872 319.209 217.837 318.185 220.44C317.161 223 315.731 225.155 313.897 226.904C312.105 228.611 309.971 229.912 307.497 230.808C305.022 231.704 302.334 232.152 299.433 232.152C296.531 232.152 293.843 231.704 291.369 230.808C288.894 229.869 286.761 228.525 284.969 226.776C283.177 225.027 281.769 222.872 280.745 220.312C279.721 217.752 279.209 214.829 279.209 211.544ZM290.729 211.544C290.729 215.427 291.518 218.328 293.097 220.248C294.675 222.168 296.787 223.128 299.433 223.128C302.121 223.128 304.254 222.168 305.833 220.248C307.411 218.328 308.201 215.427 308.201 211.544C308.201 207.704 307.411 204.824 305.833 202.904C304.297 200.984 302.185 200.024 299.497 200.024C296.851 200.024 294.718 200.984 293.097 202.904C291.518 204.781 290.729 207.661 290.729 211.544ZM337.137 193.88C337.137 194.861 337.115 196.291 337.073 198.168C337.03 200.003 336.945 202.008 336.817 204.184C336.689 206.317 336.518 208.472 336.305 210.648C336.091 212.781 335.835 214.637 335.537 216.216C335.366 216.344 335.11 216.472 334.769 216.6C334.427 216.728 334.065 216.835 333.681 216.92C333.297 217.005 332.913 217.069 332.529 217.112C332.145 217.155 331.803 217.176 331.505 217.176C330.267 217.176 329.222 216.984 328.369 216.6C327.558 216.216 327.046 215.469 326.833 214.36C326.619 213.379 326.427 211.885 326.257 209.88C326.129 207.875 326.001 205.699 325.873 203.352C325.745 201.005 325.638 198.68 325.553 196.376C325.51 194.072 325.489 192.109 325.489 190.488C326.342 190.019 327.302 189.656 328.369 189.4C329.478 189.101 330.566 188.952 331.633 188.952C333.382 188.952 334.726 189.357 335.665 190.168C336.646 190.979 337.137 192.216 337.137 193.88ZM325.361 226.136C325.361 224.387 325.894 222.957 326.961 221.848C328.07 220.696 329.585 220.12 331.505 220.12C333.425 220.12 334.918 220.696 335.985 221.848C337.094 222.957 337.649 224.387 337.649 226.136C337.649 227.885 337.094 229.336 335.985 230.488C334.918 231.597 333.425 232.152 331.505 232.152C329.585 232.152 328.07 231.597 326.961 230.488C325.894 229.336 325.361 227.885 325.361 226.136Z" fill="#3FD0CB"/>
</g>
<g filter="url(#filter2_d)">
<path d="M49.0312 300V278.555H53.6162V300H49.0312ZM58.5234 300V278.555H63.1084V296.104H70.4326V300H58.5234ZM80.6865 300L83.9531 278.555H88.7578L92.8887 291.182C92.9766 291.445 93.0693 291.831 93.167 292.339C93.2744 292.847 93.3721 293.428 93.46 294.082C93.5381 293.418 93.626 292.827 93.7236 292.31C93.8213 291.782 93.9141 291.396 94.002 291.152L98.2061 278.555H102.938L106.219 300H101.868L100.301 287.065C100.184 286.108 100.105 285.386 100.066 284.897C100.027 284.409 100.008 283.955 100.008 283.535C100.008 283.311 100.008 283.145 100.008 283.037C100.018 282.92 100.027 282.817 100.037 282.729C99.8906 283.569 99.749 284.297 99.6123 284.912C99.4854 285.518 99.3682 285.977 99.2607 286.289L94.7197 300H92.1416L87.6738 286.289C87.6348 286.162 87.5469 285.811 87.4102 285.234C87.2832 284.658 87.1025 283.818 86.8682 282.715V283.345C86.8682 284.341 86.7803 285.562 86.6045 287.007L86.5898 287.065L85.0371 300H80.6865ZM131.165 289.321C131.165 290.854 130.877 292.305 130.301 293.672C129.734 295.039 128.914 296.24 127.84 297.275C126.727 298.34 125.472 299.155 124.075 299.722C122.679 300.288 121.233 300.571 119.739 300.571C118.431 300.571 117.146 300.352 115.887 299.912C114.637 299.463 113.489 298.823 112.444 297.993C111.097 296.919 110.062 295.635 109.339 294.141C108.626 292.646 108.27 291.04 108.27 289.321C108.27 287.778 108.553 286.333 109.119 284.985C109.686 283.628 110.516 282.422 111.609 281.367C112.684 280.322 113.929 279.512 115.345 278.936C116.771 278.359 118.235 278.071 119.739 278.071C121.233 278.071 122.684 278.359 124.09 278.936C125.506 279.512 126.756 280.322 127.84 281.367C128.924 282.422 129.749 283.628 130.315 284.985C130.882 286.343 131.165 287.788 131.165 289.321ZM119.739 296.484C121.683 296.484 123.284 295.806 124.544 294.448C125.813 293.081 126.448 291.372 126.448 289.321C126.448 287.29 125.809 285.581 124.529 284.194C123.25 282.808 121.653 282.114 119.739 282.114C117.796 282.114 116.185 282.808 114.905 284.194C113.626 285.571 112.986 287.28 112.986 289.321C112.986 291.392 113.616 293.105 114.876 294.463C116.136 295.811 117.757 296.484 119.739 296.484ZM139.632 296.133H142.181C144.583 296.133 146.331 295.586 147.425 294.492C148.528 293.398 149.08 291.665 149.08 289.292C149.08 286.929 148.528 285.2 147.425 284.106C146.331 283.003 144.583 282.451 142.181 282.451H139.632V296.133ZM135.047 300V278.555H140.892C143.196 278.555 145.013 278.716 146.341 279.038C147.669 279.36 148.836 279.897 149.842 280.649C151.141 281.616 152.122 282.837 152.786 284.312C153.46 285.776 153.797 287.446 153.797 289.321C153.797 291.226 153.455 292.915 152.771 294.39C152.088 295.854 151.087 297.065 149.769 298.022C148.792 298.726 147.703 299.233 146.502 299.546C145.311 299.849 143.562 300 141.258 300H139.632H135.047ZM179.593 289.321C179.593 290.854 179.305 292.305 178.729 293.672C178.162 295.039 177.342 296.24 176.268 297.275C175.154 298.34 173.899 299.155 172.503 299.722C171.106 300.288 169.661 300.571 168.167 300.571C166.858 300.571 165.574 300.352 164.314 299.912C163.064 299.463 161.917 298.823 160.872 297.993C159.524 296.919 158.489 295.635 157.767 294.141C157.054 292.646 156.697 291.04 156.697 289.321C156.697 287.778 156.98 286.333 157.547 284.985C158.113 283.628 158.943 282.422 160.037 281.367C161.111 280.322 162.356 279.512 163.772 278.936C165.198 278.359 166.663 278.071 168.167 278.071C169.661 278.071 171.111 278.359 172.518 278.936C173.934 279.512 175.184 280.322 176.268 281.367C177.352 282.422 178.177 283.628 178.743 284.985C179.31 286.343 179.593 287.788 179.593 289.321ZM168.167 296.484C170.11 296.484 171.712 295.806 172.972 294.448C174.241 293.081 174.876 291.372 174.876 289.321C174.876 287.29 174.236 285.581 172.957 284.194C171.678 282.808 170.081 282.114 168.167 282.114C166.224 282.114 164.612 282.808 163.333 284.194C162.054 285.571 161.414 287.28 161.414 289.321C161.414 291.392 162.044 293.105 163.304 294.463C164.563 295.811 166.185 296.484 168.167 296.484ZM190.843 300L194.109 278.555H198.914L203.045 291.182C203.133 291.445 203.226 291.831 203.323 292.339C203.431 292.847 203.528 293.428 203.616 294.082C203.694 293.418 203.782 292.827 203.88 292.31C203.978 291.782 204.07 291.396 204.158 291.152L208.362 278.555H213.094L216.375 300H212.024L210.457 287.065C210.34 286.108 210.262 285.386 210.223 284.897C210.184 284.409 210.164 283.955 210.164 283.535C210.164 283.311 210.164 283.145 210.164 283.037C210.174 282.92 210.184 282.817 210.193 282.729C210.047 283.569 209.905 284.297 209.769 284.912C209.642 285.518 209.524 285.977 209.417 286.289L204.876 300H202.298L197.83 286.289C197.791 286.162 197.703 285.811 197.566 285.234C197.439 284.658 197.259 283.818 197.024 282.715V283.345C197.024 284.341 196.937 285.562 196.761 287.007L196.746 287.065L195.193 300H190.843ZM219.451 300V278.555H224.036V300H219.451ZM239.593 288.691H249.363C249.383 288.818 249.393 288.955 249.393 289.102C249.402 289.248 249.407 289.473 249.407 289.775C249.407 292.988 248.489 295.591 246.653 297.583C244.817 299.575 242.444 300.571 239.534 300.571C236.204 300.571 233.46 299.512 231.302 297.393C229.144 295.264 228.064 292.563 228.064 289.292C228.064 286.05 229.148 283.369 231.316 281.25C233.484 279.131 236.224 278.071 239.534 278.071C241.282 278.071 242.884 278.438 244.339 279.17C245.794 279.902 247.093 280.996 248.235 282.451L245.145 284.736C244.373 283.779 243.562 283.091 242.713 282.671C241.863 282.241 240.882 282.026 239.769 282.026C237.649 282.026 235.955 282.686 234.686 284.004C233.416 285.322 232.781 287.085 232.781 289.292C232.781 291.46 233.416 293.213 234.686 294.551C235.965 295.879 237.63 296.543 239.681 296.543C241.185 296.543 242.405 296.191 243.343 295.488C244.28 294.775 244.749 293.848 244.749 292.705V292.471H239.593V288.691ZM253.055 300V278.555H257.64V296.104H264.964V300H253.055ZM267.938 300V278.555H272.522V300H267.938ZM299.388 289.321C299.388 290.854 299.1 292.305 298.523 293.672C297.957 295.039 297.137 296.24 296.062 297.275C294.949 298.34 293.694 299.155 292.298 299.722C290.901 300.288 289.456 300.571 287.962 300.571C286.653 300.571 285.369 300.352 284.109 299.912C282.859 299.463 281.712 298.823 280.667 297.993C279.319 296.919 278.284 295.635 277.562 294.141C276.849 292.646 276.492 291.04 276.492 289.321C276.492 287.778 276.775 286.333 277.342 284.985C277.908 283.628 278.738 282.422 279.832 281.367C280.906 280.322 282.151 279.512 283.567 278.936C284.993 278.359 286.458 278.071 287.962 278.071C289.456 278.071 290.906 278.359 292.312 278.936C293.729 279.512 294.979 280.322 296.062 281.367C297.146 282.422 297.972 283.628 298.538 284.985C299.104 286.343 299.388 287.788 299.388 289.321ZM287.962 296.484C289.905 296.484 291.507 295.806 292.767 294.448C294.036 293.081 294.671 291.372 294.671 289.321C294.671 287.29 294.031 285.581 292.752 284.194C291.473 282.808 289.876 282.114 287.962 282.114C286.019 282.114 284.407 282.808 283.128 284.194C281.849 285.571 281.209 287.28 281.209 289.321C281.209 291.392 281.839 293.105 283.099 294.463C284.358 295.811 285.979 296.484 287.962 296.484ZM318.782 300H313.494L307.854 289.98V300H303.27V278.555H309.832C312.439 278.555 314.393 279.062 315.691 280.078C316.99 281.084 317.64 282.603 317.64 284.634C317.64 286.108 317.195 287.368 316.307 288.413C315.418 289.458 314.271 290.068 312.864 290.244L318.782 300ZM307.854 287.695H308.543C310.398 287.695 311.624 287.495 312.22 287.095C312.815 286.685 313.113 285.977 313.113 284.971C313.113 283.916 312.791 283.169 312.146 282.729C311.512 282.28 310.311 282.056 308.543 282.056H307.854V287.695ZM321.463 300V278.555H334.09V282.422H326.048V286.831H334.09V290.728H326.048V296.104H334.09V300H321.463ZM352.444 288.237H353.104C354.354 288.237 355.262 287.979 355.828 287.461C356.395 286.943 356.678 286.113 356.678 284.971C356.678 283.916 356.395 283.149 355.828 282.671C355.262 282.183 354.354 281.938 353.104 281.938H352.444V288.237ZM347.83 300V278.555H353.104C355.916 278.555 357.991 279.092 359.329 280.166C360.677 281.24 361.351 282.9 361.351 285.146C361.351 287.227 360.672 288.857 359.314 290.039C357.967 291.221 356.097 291.812 353.704 291.812H352.444V300H347.83ZM364.529 300V278.555H377.156V282.422H369.114V286.831H377.156V290.728H369.114V296.104H377.156V300H364.529ZM397.181 300H391.893L386.253 289.98V300H381.668V278.555H388.23C390.838 278.555 392.791 279.062 394.09 280.078C395.389 281.084 396.038 282.603 396.038 284.634C396.038 286.108 395.594 287.368 394.705 288.413C393.816 289.458 392.669 290.068 391.263 290.244L397.181 300ZM386.253 287.695H386.941C388.797 287.695 390.022 287.495 390.618 287.095C391.214 286.685 391.512 285.977 391.512 284.971C391.512 283.916 391.189 283.169 390.545 282.729C389.91 282.28 388.709 282.056 386.941 282.056H386.253V287.695ZM11.5898 324.237H12.249C13.499 324.237 14.4072 323.979 14.9736 323.461C15.54 322.943 15.8232 322.113 15.8232 320.971C15.8232 319.916 15.54 319.149 14.9736 318.671C14.4072 318.183 13.499 317.938 12.249 317.938H11.5898V324.237ZM6.97559 336V314.555H12.249C15.0615 314.555 17.1367 315.092 18.4746 316.166C19.8223 317.24 20.4961 318.9 20.4961 321.146C20.4961 323.227 19.8174 324.857 18.46 326.039C17.1123 327.221 15.2422 327.812 12.8496 327.812H11.5898V336H6.97559ZM39.1875 336H33.8994L28.2598 325.98V336H23.6748V314.555H30.2373C32.8447 314.555 34.7979 315.062 36.0967 316.078C37.3955 317.084 38.0449 318.603 38.0449 320.634C38.0449 322.108 37.6006 323.368 36.7119 324.413C35.8232 325.458 34.6758 326.068 33.2695 326.244L39.1875 336ZM28.2598 323.695H28.9482C30.8037 323.695 32.0293 323.495 32.625 323.095C33.2207 322.685 33.5186 321.977 33.5186 320.971C33.5186 319.916 33.1963 319.169 32.5518 318.729C31.917 318.28 30.7158 318.056 28.9482 318.056H28.2598V323.695ZM41.8682 336V314.555H54.4951V318.422H46.4531V322.831H54.4951V326.728H46.4531V332.104H54.4951V336H41.8682ZM59.0068 336V314.555H63.7676L73.2598 327.035C73.5332 327.387 73.8311 327.885 74.1533 328.529C74.4854 329.164 74.8271 329.916 75.1787 330.785C75.0713 330.15 74.9932 329.521 74.9443 328.896C74.8955 328.271 74.8711 327.489 74.8711 326.552V314.555H79.251V336H74.7539L64.998 323.285C64.7246 322.934 64.4268 322.44 64.1045 321.806C63.7822 321.161 63.4404 320.395 63.0791 319.506C63.1865 320.121 63.2646 320.746 63.3135 321.381C63.3623 322.006 63.3867 322.797 63.3867 323.754V336H59.0068ZM105.984 325.321C105.984 326.854 105.696 328.305 105.12 329.672C104.554 331.039 103.733 332.24 102.659 333.275C101.546 334.34 100.291 335.155 98.8945 335.722C97.498 336.288 96.0527 336.571 94.5586 336.571C93.25 336.571 91.9658 336.352 90.7061 335.912C89.4561 335.463 88.3086 334.823 87.2637 333.993C85.916 332.919 84.8809 331.635 84.1582 330.141C83.4453 328.646 83.0889 327.04 83.0889 325.321C83.0889 323.778 83.3721 322.333 83.9385 320.985C84.5049 319.628 85.335 318.422 86.4287 317.367C87.5029 316.322 88.748 315.512 90.1641 314.936C91.5898 314.359 93.0547 314.071 94.5586 314.071C96.0527 314.071 97.5029 314.359 98.9092 314.936C100.325 315.512 101.575 316.322 102.659 317.367C103.743 318.422 104.568 319.628 105.135 320.985C105.701 322.343 105.984 323.788 105.984 325.321ZM94.5586 332.484C96.502 332.484 98.1035 331.806 99.3633 330.448C100.633 329.081 101.268 327.372 101.268 325.321C101.268 323.29 100.628 321.581 99.3486 320.194C98.0693 318.808 96.4727 318.114 94.5586 318.114C92.6152 318.114 91.0039 318.808 89.7246 320.194C88.4453 321.571 87.8057 323.28 87.8057 325.321C87.8057 327.392 88.4355 329.105 89.6953 330.463C90.9551 331.811 92.5762 332.484 94.5586 332.484ZM117.352 318.451V336H112.752V318.451H107.508V314.555H122.625V318.451H117.352ZM135.062 327.841L132.659 320.912C132.591 320.707 132.503 320.355 132.396 319.857C132.288 319.359 132.176 318.749 132.059 318.026C131.932 318.72 131.81 319.345 131.692 319.901C131.575 320.448 131.487 320.814 131.429 321L129.114 327.841H135.062ZM121.409 336L129.568 314.555H134.812L143.089 336H137.874L136.131 331.444H127.825L126.331 336H121.409ZM160.857 336H155.569L149.93 325.98V336H145.345V314.555H151.907C154.515 314.555 156.468 315.062 157.767 316.078C159.065 317.084 159.715 318.603 159.715 320.634C159.715 322.108 159.271 323.368 158.382 324.413C157.493 325.458 156.346 326.068 154.939 326.244L160.857 336ZM149.93 323.695H150.618C152.474 323.695 153.699 323.495 154.295 323.095C154.891 322.685 155.188 321.977 155.188 320.971C155.188 319.916 154.866 319.169 154.222 318.729C153.587 318.28 152.386 318.056 150.618 318.056H149.93V323.695ZM163.538 336V314.555H176.165V318.422H168.123V322.831H176.165V326.728H168.123V332.104H176.165V336H163.538ZM189.993 336V314.555H194.578V336H189.993ZM199.485 336V314.555H204.07V332.104H211.395V336H199.485ZM231.521 318.451V336H226.922V318.451H221.678V314.555H236.795V318.451H231.521ZM258.211 314.555V327.899C258.211 330.81 257.444 332.982 255.911 334.418C254.378 335.854 252.068 336.571 248.982 336.571C245.848 336.571 243.514 335.854 241.98 334.418C240.447 332.982 239.681 330.81 239.681 327.899V314.555H244.236V327.182C244.236 328.949 244.627 330.282 245.408 331.181C246.189 332.069 247.356 332.514 248.909 332.514C250.472 332.514 251.653 332.064 252.454 331.166C253.255 330.268 253.655 328.939 253.655 327.182V314.555H258.211ZM284.93 325.321C284.93 326.854 284.642 328.305 284.065 329.672C283.499 331.039 282.679 332.24 281.604 333.275C280.491 334.34 279.236 335.155 277.84 335.722C276.443 336.288 274.998 336.571 273.504 336.571C272.195 336.571 270.911 336.352 269.651 335.912C268.401 335.463 267.254 334.823 266.209 333.993C264.861 332.919 263.826 331.635 263.104 330.141C262.391 328.646 262.034 327.04 262.034 325.321C262.034 323.778 262.317 322.333 262.884 320.985C263.45 319.628 264.28 318.422 265.374 317.367C266.448 316.322 267.693 315.512 269.109 314.936C270.535 314.359 272 314.071 273.504 314.071C274.998 314.071 276.448 314.359 277.854 314.936C279.271 315.512 280.521 316.322 281.604 317.367C282.688 318.422 283.514 319.628 284.08 320.985C284.646 322.343 284.93 323.788 284.93 325.321ZM273.504 332.484C275.447 332.484 277.049 331.806 278.309 330.448C279.578 329.081 280.213 327.372 280.213 325.321C280.213 323.29 279.573 321.581 278.294 320.194C277.015 318.808 275.418 318.114 273.504 318.114C271.561 318.114 269.949 318.808 268.67 320.194C267.391 321.571 266.751 323.28 266.751 325.321C266.751 327.392 267.381 329.105 268.641 330.463C269.9 331.811 271.521 332.484 273.504 332.484ZM303.475 336L295.55 314.555H300.618L304.793 327.929C304.871 328.202 304.993 328.71 305.159 329.452C305.325 330.194 305.501 331.039 305.687 331.986C305.813 331.068 305.95 330.253 306.097 329.54C306.253 328.827 306.404 328.241 306.551 327.782L310.784 314.555H315.794L307.811 336H303.475ZM318.108 336V314.555H330.735V318.422H322.693V322.831H330.735V326.728H322.693V332.104H330.735V336H318.108ZM335.335 336V314.555H339.92V336H335.335ZM362.098 320.136C361.17 319.306 360.218 318.7 359.241 318.319C358.265 317.929 357.22 317.733 356.106 317.733C353.821 317.733 352 318.417 350.643 319.784C349.285 321.151 348.606 322.987 348.606 325.292C348.606 327.548 349.236 329.34 350.496 330.668C351.756 331.986 353.475 332.646 355.652 332.646C356.893 332.646 358.045 332.44 359.109 332.03C360.174 331.61 361.16 330.985 362.068 330.155L362.039 334.857C361.062 335.434 360.037 335.863 358.963 336.146C357.898 336.43 356.775 336.571 355.594 336.571C352.176 336.571 349.368 335.512 347.171 333.393C344.983 331.264 343.89 328.563 343.89 325.292C343.89 322.03 344.988 319.34 347.186 317.221C349.383 315.102 352.215 314.042 355.682 314.042C356.844 314.042 357.967 314.164 359.051 314.408C360.135 314.652 361.204 315.028 362.259 315.536L362.098 320.136ZM388.318 325.321C388.318 326.854 388.03 328.305 387.454 329.672C386.888 331.039 386.067 332.24 384.993 333.275C383.88 334.34 382.625 335.155 381.229 335.722C379.832 336.288 378.387 336.571 376.893 336.571C375.584 336.571 374.3 336.352 373.04 335.912C371.79 335.463 370.643 334.823 369.598 333.993C368.25 332.919 367.215 331.635 366.492 330.141C365.779 328.646 365.423 327.04 365.423 325.321C365.423 323.778 365.706 322.333 366.272 320.985C366.839 319.628 367.669 318.422 368.763 317.367C369.837 316.322 371.082 315.512 372.498 314.936C373.924 314.359 375.389 314.071 376.893 314.071C378.387 314.071 379.837 314.359 381.243 314.936C382.659 315.512 383.909 316.322 384.993 317.367C386.077 318.422 386.902 319.628 387.469 320.985C388.035 322.343 388.318 323.788 388.318 325.321ZM376.893 332.484C378.836 332.484 380.438 331.806 381.697 330.448C382.967 329.081 383.602 327.372 383.602 325.321C383.602 323.29 382.962 321.581 381.683 320.194C380.403 318.808 378.807 318.114 376.893 318.114C374.949 318.114 373.338 318.808 372.059 320.194C370.779 321.571 370.14 323.28 370.14 325.321C370.14 327.392 370.77 329.105 372.029 330.463C373.289 331.811 374.91 332.484 376.893 332.484ZM392.2 336V314.555H396.785V332.104H404.109V336H392.2ZM427.869 325.321C427.869 326.854 427.581 328.305 427.005 329.672C426.438 331.039 425.618 332.24 424.544 333.275C423.431 334.34 422.176 335.155 420.779 335.722C419.383 336.288 417.938 336.571 416.443 336.571C415.135 336.571 413.851 336.352 412.591 335.912C411.341 335.463 410.193 334.823 409.148 333.993C407.801 332.919 406.766 331.635 406.043 330.141C405.33 328.646 404.974 327.04 404.974 325.321C404.974 323.778 405.257 322.333 405.823 320.985C406.39 319.628 407.22 318.422 408.313 317.367C409.388 316.322 410.633 315.512 412.049 314.936C413.475 314.359 414.939 314.071 416.443 314.071C417.938 314.071 419.388 314.359 420.794 314.936C422.21 315.512 423.46 316.322 424.544 317.367C425.628 318.422 426.453 319.628 427.02 320.985C427.586 322.343 427.869 323.788 427.869 325.321ZM416.443 332.484C418.387 332.484 419.988 331.806 421.248 330.448C422.518 329.081 423.152 327.372 423.152 325.321C423.152 323.29 422.513 321.581 421.233 320.194C419.954 318.808 418.357 318.114 416.443 318.114C414.5 318.114 412.889 318.808 411.609 320.194C410.33 321.571 409.69 323.28 409.69 325.321C409.69 327.392 410.32 329.105 411.58 330.463C412.84 331.811 414.461 332.484 416.443 332.484ZM432.293 329.306V314.071H436.453V329.306H432.293ZM431.868 334.052C431.868 333.358 432.112 332.772 432.601 332.294C433.089 331.806 433.685 331.562 434.388 331.562C435.081 331.562 435.667 331.801 436.146 332.279C436.634 332.758 436.878 333.349 436.878 334.052C436.878 334.755 436.634 335.351 436.146 335.839C435.667 336.327 435.081 336.571 434.388 336.571C433.694 336.571 433.099 336.322 432.601 335.824C432.112 335.326 431.868 334.735 431.868 334.052Z" fill="#FFFEFE"/>
</g>
<defs>
<filter id="filter0_d" x="153" y="0" width="139" height="139" filterUnits="userSpaceOnUse" color-interpolation-filters="sRGB">
<feFlood flood-opacity="0" result="BackgroundImageFix"/>
<feColorMatrix in="SourceAlpha" type="matrix" values="0 0 0 0 0 0 0 0 0 0 0 0 0 0 0 0 0 0 127 0"/>
<feOffset dy="4"/>
<feGaussianBlur stdDeviation="2"/>
<feColorMatrix type="matrix" values="0 0 0 0 0 0 0 0 0 0 0 0 0 0 0 0 0 0 0.25 0"/>
<feBlend mode="normal" in2="BackgroundImageFix" result="effect1_dropShadow"/>
<feBlend mode="normal" in="SourceGraphic" in2="effect1_dropShadow" result="shape"/>
</filter>
<filter id="filter1_d" x="100.209" y="188.952" width="241.44" height="51.2" filterUnits="userSpaceOnUse" color-interpolation-filters="sRGB">
<feFlood flood-opacity="0" result="BackgroundImageFix"/>
<feColorMatrix in="SourceAlpha" type="matrix" values="0 0 0 0 0 0 0 0 0 0 0 0 0 0 0 0 0 0 127 0"/>
<feOffset dy="4"/>
<feGaussianBlur stdDeviation="2"/>
<feColorMatrix type="matrix" values="0 0 0 0 0 0 0 0 0 0 0 0 0 0 0 0 0 0 0.25 0"/>
<feBlend mode="normal" in2="BackgroundImageFix" result="effect1_dropShadow"/>
<feBlend mode="normal" in="SourceGraphic" in2="effect1_dropShadow" result="shape"/>
</filter>
<filter id="filter2_d" x="2.97559" y="278.071" width="437.902" height="66.5" filterUnits="userSpaceOnUse" color-interpolation-filters="sRGB">
<feFlood flood-opacity="0" result="BackgroundImageFix"/>
<feColorMatrix in="SourceAlpha" type="matrix" values="0 0 0 0 0 0 0 0 0 0 0 0 0 0 0 0 0 0 127 0"/>
<feOffset dy="4"/>
<feGaussianBlur stdDeviation="2"/>
<feColorMatrix type="matrix" values="0 0 0 0 0 0 0 0 0 0 0 0 0 0 0 0 0 0 0.25 0"/>
<feBlend mode="normal" in2="BackgroundImageFix" result="effect1_dropShadow"/>
<feBlend mode="normal" in="SourceGraphic" in2="effect1_dropShadow" result="shape"/>
</filter>
</defs>
</svg>
