<svg width="139" height="139" viewBox="0 0 139 139" fill="none" xmlns="http://www.w3.org/2000/svg">
<g filter="url(#filter0_d)">
<path d="M69.5 131C105.675 131 135 101.675 135 65.5C135 29.3253 105.675 0 69.5 0C33.3253 0 4 29.3253 4 65.5C4 101.675 33.3253 131 69.5 131Z" fill="#43AAA6"/>
<path d="M93.7666 19.5828C93.7666 23.2363 93.8104 26.5756 93.7447 29.9149C93.7154 31.3032 92.7217 32.0193 91.4941 32.4869C89.587 33.2103 87.5849 33.7145 85.8239 34.6717C85.8531 35.4317 86.3719 35.607 86.7446 35.892C95.8929 42.9506 99.9191 52.1866 97.179 63.4906C94.4315 74.8091 86.5473 81.5827 75.3091 83.7383C63.2233 86.0619 52.9277 82.2623 45.7084 72.0617C36.1289 58.5072 41.6384 40.1958 57.2096 33.1007C60.6293 31.5443 64.2244 30.3606 67.761 29.06C75.4625 26.2175 83.1714 23.4116 90.8803 20.5911C91.7352 20.2842 92.5902 19.9993 93.7666 19.5828ZM68.8935 72.5074C77.2966 73.0335 84.5378 66.5449 85.0493 58.0176C85.5316 49.958 78.9553 42.7971 70.5449 42.2272C61.9446 41.6499 54.5718 48.1166 53.9946 56.7389C53.4538 64.8935 60.1324 71.9594 68.8935 72.5074Z" fill="white"/>
<path d="M91.9545 84.4471C91.8668 87.3188 92.2394 90.1758 91.633 92.9744C91.0557 95.6414 89.2363 97.2271 86.708 98.1477C76.7632 101.772 66.833 105.426 56.8955 109.072C54.8568 109.817 52.8255 110.562 50.4726 111.417C50.4945 108.027 50.1365 104.951 50.6845 101.904C51.0206 100.048 52.2701 98.725 54.0238 98.0747C66.4092 93.5078 78.8165 88.9848 91.2165 84.4544C91.3772 84.396 91.5672 84.4471 91.9545 84.4471Z" fill="white"/>
</g>
<defs>
<filter id="filter0_d" x="0" y="0" width="139" height="139" filterUnits="userSpaceOnUse" color-interpolation-filters="sRGB">
<feFlood flood-opacity="0" result="BackgroundImageFix"/>
<feColorMatrix in="SourceAlpha" type="matrix" values="0 0 0 0 0 0 0 0 0 0 0 0 0 0 0 0 0 0 127 0"/>
<feOffset dy="4"/>
<feGaussianBlur stdDeviation="2"/>
<feColorMatrix type="matrix" values="0 0 0 0 0 0 0 0 0 0 0 0 0 0 0 0 0 0 0.25 0"/>
<feBlend mode="normal" in2="BackgroundImageFix" result="effect1_dropShadow"/>
<feBlend mode="normal" in="SourceGraphic" in2="effect1_dropShadow" result="shape"/>
</filter>
</defs>
</svg>
