<svg width="499" height="216" viewBox="0 0 499 216" fill="none" xmlns="http://www.w3.org/2000/svg">
<g filter="url(#filter0_d)">
<path d="M76.0312 171V149.555H80.6162V171H76.0312ZM85.5234 171V149.555H90.1084V167.104H97.4326V171H85.5234ZM107.687 171L110.953 149.555H115.758L119.889 162.182C119.977 162.445 120.069 162.831 120.167 163.339C120.274 163.847 120.372 164.428 120.46 165.082C120.538 164.418 120.626 163.827 120.724 163.31C120.821 162.782 120.914 162.396 121.002 162.152L125.206 149.555H129.938L133.219 171H128.868L127.301 158.065C127.184 157.108 127.105 156.386 127.066 155.897C127.027 155.409 127.008 154.955 127.008 154.535C127.008 154.311 127.008 154.145 127.008 154.037C127.018 153.92 127.027 153.817 127.037 153.729C126.891 154.569 126.749 155.297 126.612 155.912C126.485 156.518 126.368 156.977 126.261 157.289L121.72 171H119.142L114.674 157.289C114.635 157.162 114.547 156.811 114.41 156.234C114.283 155.658 114.103 154.818 113.868 153.715V154.345C113.868 155.341 113.78 156.562 113.604 158.007L113.59 158.065L112.037 171H107.687ZM158.165 160.321C158.165 161.854 157.877 163.305 157.301 164.672C156.734 166.039 155.914 167.24 154.84 168.275C153.727 169.34 152.472 170.155 151.075 170.722C149.679 171.288 148.233 171.571 146.739 171.571C145.431 171.571 144.146 171.352 142.887 170.912C141.637 170.463 140.489 169.823 139.444 168.993C138.097 167.919 137.062 166.635 136.339 165.141C135.626 163.646 135.27 162.04 135.27 160.321C135.27 158.778 135.553 157.333 136.119 155.985C136.686 154.628 137.516 153.422 138.609 152.367C139.684 151.322 140.929 150.512 142.345 149.936C143.771 149.359 145.235 149.071 146.739 149.071C148.233 149.071 149.684 149.359 151.09 149.936C152.506 150.512 153.756 151.322 154.84 152.367C155.924 153.422 156.749 154.628 157.315 155.985C157.882 157.343 158.165 158.788 158.165 160.321ZM146.739 167.484C148.683 167.484 150.284 166.806 151.544 165.448C152.813 164.081 153.448 162.372 153.448 160.321C153.448 158.29 152.809 156.581 151.529 155.194C150.25 153.808 148.653 153.114 146.739 153.114C144.796 153.114 143.185 153.808 141.905 155.194C140.626 156.571 139.986 158.28 139.986 160.321C139.986 162.392 140.616 164.105 141.876 165.463C143.136 166.811 144.757 167.484 146.739 167.484ZM166.632 167.133H169.181C171.583 167.133 173.331 166.586 174.425 165.492C175.528 164.398 176.08 162.665 176.08 160.292C176.08 157.929 175.528 156.2 174.425 155.106C173.331 154.003 171.583 153.451 169.181 153.451H166.632V167.133ZM162.047 171V149.555H167.892C170.196 149.555 172.013 149.716 173.341 150.038C174.669 150.36 175.836 150.897 176.842 151.649C178.141 152.616 179.122 153.837 179.786 155.312C180.46 156.776 180.797 158.446 180.797 160.321C180.797 162.226 180.455 163.915 179.771 165.39C179.088 166.854 178.087 168.065 176.769 169.022C175.792 169.726 174.703 170.233 173.502 170.546C172.311 170.849 170.562 171 168.258 171H166.632H162.047ZM206.593 160.321C206.593 161.854 206.305 163.305 205.729 164.672C205.162 166.039 204.342 167.24 203.268 168.275C202.154 169.34 200.899 170.155 199.503 170.722C198.106 171.288 196.661 171.571 195.167 171.571C193.858 171.571 192.574 171.352 191.314 170.912C190.064 170.463 188.917 169.823 187.872 168.993C186.524 167.919 185.489 166.635 184.767 165.141C184.054 163.646 183.697 162.04 183.697 160.321C183.697 158.778 183.98 157.333 184.547 155.985C185.113 154.628 185.943 153.422 187.037 152.367C188.111 151.322 189.356 150.512 190.772 149.936C192.198 149.359 193.663 149.071 195.167 149.071C196.661 149.071 198.111 149.359 199.518 149.936C200.934 150.512 202.184 151.322 203.268 152.367C204.352 153.422 205.177 154.628 205.743 155.985C206.31 157.343 206.593 158.788 206.593 160.321ZM195.167 167.484C197.11 167.484 198.712 166.806 199.972 165.448C201.241 164.081 201.876 162.372 201.876 160.321C201.876 158.29 201.236 156.581 199.957 155.194C198.678 153.808 197.081 153.114 195.167 153.114C193.224 153.114 191.612 153.808 190.333 155.194C189.054 156.571 188.414 158.28 188.414 160.321C188.414 162.392 189.044 164.105 190.304 165.463C191.563 166.811 193.185 167.484 195.167 167.484ZM217.843 171L221.109 149.555H225.914L230.045 162.182C230.133 162.445 230.226 162.831 230.323 163.339C230.431 163.847 230.528 164.428 230.616 165.082C230.694 164.418 230.782 163.827 230.88 163.31C230.978 162.782 231.07 162.396 231.158 162.152L235.362 149.555H240.094L243.375 171H239.024L237.457 158.065C237.34 157.108 237.262 156.386 237.223 155.897C237.184 155.409 237.164 154.955 237.164 154.535C237.164 154.311 237.164 154.145 237.164 154.037C237.174 153.92 237.184 153.817 237.193 153.729C237.047 154.569 236.905 155.297 236.769 155.912C236.642 156.518 236.524 156.977 236.417 157.289L231.876 171H229.298L224.83 157.289C224.791 157.162 224.703 156.811 224.566 156.234C224.439 155.658 224.259 154.818 224.024 153.715V154.345C224.024 155.341 223.937 156.562 223.761 158.007L223.746 158.065L222.193 171H217.843ZM246.451 171V149.555H251.036V171H246.451ZM266.593 159.691H276.363C276.383 159.818 276.393 159.955 276.393 160.102C276.402 160.248 276.407 160.473 276.407 160.775C276.407 163.988 275.489 166.591 273.653 168.583C271.817 170.575 269.444 171.571 266.534 171.571C263.204 171.571 260.46 170.512 258.302 168.393C256.144 166.264 255.064 163.563 255.064 160.292C255.064 157.05 256.148 154.369 258.316 152.25C260.484 150.131 263.224 149.071 266.534 149.071C268.282 149.071 269.884 149.438 271.339 150.17C272.794 150.902 274.093 151.996 275.235 153.451L272.145 155.736C271.373 154.779 270.562 154.091 269.713 153.671C268.863 153.241 267.882 153.026 266.769 153.026C264.649 153.026 262.955 153.686 261.686 155.004C260.416 156.322 259.781 158.085 259.781 160.292C259.781 162.46 260.416 164.213 261.686 165.551C262.965 166.879 264.63 167.543 266.681 167.543C268.185 167.543 269.405 167.191 270.343 166.488C271.28 165.775 271.749 164.848 271.749 163.705V163.471H266.593V159.691ZM280.055 171V149.555H284.64V167.104H291.964V171H280.055ZM294.938 171V149.555H299.522V171H294.938ZM326.388 160.321C326.388 161.854 326.1 163.305 325.523 164.672C324.957 166.039 324.137 167.24 323.062 168.275C321.949 169.34 320.694 170.155 319.298 170.722C317.901 171.288 316.456 171.571 314.962 171.571C313.653 171.571 312.369 171.352 311.109 170.912C309.859 170.463 308.712 169.823 307.667 168.993C306.319 167.919 305.284 166.635 304.562 165.141C303.849 163.646 303.492 162.04 303.492 160.321C303.492 158.778 303.775 157.333 304.342 155.985C304.908 154.628 305.738 153.422 306.832 152.367C307.906 151.322 309.151 150.512 310.567 149.936C311.993 149.359 313.458 149.071 314.962 149.071C316.456 149.071 317.906 149.359 319.312 149.936C320.729 150.512 321.979 151.322 323.062 152.367C324.146 153.422 324.972 154.628 325.538 155.985C326.104 157.343 326.388 158.788 326.388 160.321ZM314.962 167.484C316.905 167.484 318.507 166.806 319.767 165.448C321.036 164.081 321.671 162.372 321.671 160.321C321.671 158.29 321.031 156.581 319.752 155.194C318.473 153.808 316.876 153.114 314.962 153.114C313.019 153.114 311.407 153.808 310.128 155.194C308.849 156.571 308.209 158.28 308.209 160.321C308.209 162.392 308.839 164.105 310.099 165.463C311.358 166.811 312.979 167.484 314.962 167.484ZM345.782 171H340.494L334.854 160.98V171H330.27V149.555H336.832C339.439 149.555 341.393 150.062 342.691 151.078C343.99 152.084 344.64 153.603 344.64 155.634C344.64 157.108 344.195 158.368 343.307 159.413C342.418 160.458 341.271 161.068 339.864 161.244L345.782 171ZM334.854 158.695H335.543C337.398 158.695 338.624 158.495 339.22 158.095C339.815 157.685 340.113 156.977 340.113 155.971C340.113 154.916 339.791 154.169 339.146 153.729C338.512 153.28 337.311 153.056 335.543 153.056H334.854V158.695ZM348.463 171V149.555H361.09V153.422H353.048V157.831H361.09V161.728H353.048V167.104H361.09V171H348.463ZM379.444 159.237H380.104C381.354 159.237 382.262 158.979 382.828 158.461C383.395 157.943 383.678 157.113 383.678 155.971C383.678 154.916 383.395 154.149 382.828 153.671C382.262 153.183 381.354 152.938 380.104 152.938H379.444V159.237ZM374.83 171V149.555H380.104C382.916 149.555 384.991 150.092 386.329 151.166C387.677 152.24 388.351 153.9 388.351 156.146C388.351 158.227 387.672 159.857 386.314 161.039C384.967 162.221 383.097 162.812 380.704 162.812H379.444V171H374.83ZM391.529 171V149.555H404.156V153.422H396.114V157.831H404.156V161.728H396.114V167.104H404.156V171H391.529ZM424.181 171H418.893L413.253 160.98V171H408.668V149.555H415.23C417.838 149.555 419.791 150.062 421.09 151.078C422.389 152.084 423.038 153.603 423.038 155.634C423.038 157.108 422.594 158.368 421.705 159.413C420.816 160.458 419.669 161.068 418.263 161.244L424.181 171ZM413.253 158.695H413.941C415.797 158.695 417.022 158.495 417.618 158.095C418.214 157.685 418.512 156.977 418.512 155.971C418.512 154.916 418.189 154.169 417.545 153.729C416.91 153.28 415.709 153.056 413.941 153.056H413.253V158.695ZM38.5898 195.237H39.249C40.499 195.237 41.4072 194.979 41.9736 194.461C42.54 193.943 42.8232 193.113 42.8232 191.971C42.8232 190.916 42.54 190.149 41.9736 189.671C41.4072 189.183 40.499 188.938 39.249 188.938H38.5898V195.237ZM33.9756 207V185.555H39.249C42.0615 185.555 44.1367 186.092 45.4746 187.166C46.8223 188.24 47.4961 189.9 47.4961 192.146C47.4961 194.227 46.8174 195.857 45.46 197.039C44.1123 198.221 42.2422 198.812 39.8496 198.812H38.5898V207H33.9756ZM66.1875 207H60.8994L55.2598 196.98V207H50.6748V185.555H57.2373C59.8447 185.555 61.7979 186.062 63.0967 187.078C64.3955 188.084 65.0449 189.603 65.0449 191.634C65.0449 193.108 64.6006 194.368 63.7119 195.413C62.8232 196.458 61.6758 197.068 60.2695 197.244L66.1875 207ZM55.2598 194.695H55.9482C57.8037 194.695 59.0293 194.495 59.625 194.095C60.2207 193.685 60.5186 192.977 60.5186 191.971C60.5186 190.916 60.1963 190.169 59.5518 189.729C58.917 189.28 57.7158 189.056 55.9482 189.056H55.2598V194.695ZM68.8682 207V185.555H81.4951V189.422H73.4531V193.831H81.4951V197.728H73.4531V203.104H81.4951V207H68.8682ZM86.0068 207V185.555H90.7676L100.26 198.035C100.533 198.387 100.831 198.885 101.153 199.529C101.485 200.164 101.827 200.916 102.179 201.785C102.071 201.15 101.993 200.521 101.944 199.896C101.896 199.271 101.871 198.489 101.871 197.552V185.555H106.251V207H101.754L91.998 194.285C91.7246 193.934 91.4268 193.44 91.1045 192.806C90.7822 192.161 90.4404 191.395 90.0791 190.506C90.1865 191.121 90.2646 191.746 90.3135 192.381C90.3623 193.006 90.3867 193.797 90.3867 194.754V207H86.0068ZM132.984 196.321C132.984 197.854 132.696 199.305 132.12 200.672C131.554 202.039 130.733 203.24 129.659 204.275C128.546 205.34 127.291 206.155 125.895 206.722C124.498 207.288 123.053 207.571 121.559 207.571C120.25 207.571 118.966 207.352 117.706 206.912C116.456 206.463 115.309 205.823 114.264 204.993C112.916 203.919 111.881 202.635 111.158 201.141C110.445 199.646 110.089 198.04 110.089 196.321C110.089 194.778 110.372 193.333 110.938 191.985C111.505 190.628 112.335 189.422 113.429 188.367C114.503 187.322 115.748 186.512 117.164 185.936C118.59 185.359 120.055 185.071 121.559 185.071C123.053 185.071 124.503 185.359 125.909 185.936C127.325 186.512 128.575 187.322 129.659 188.367C130.743 189.422 131.568 190.628 132.135 191.985C132.701 193.343 132.984 194.788 132.984 196.321ZM121.559 203.484C123.502 203.484 125.104 202.806 126.363 201.448C127.633 200.081 128.268 198.372 128.268 196.321C128.268 194.29 127.628 192.581 126.349 191.194C125.069 189.808 123.473 189.114 121.559 189.114C119.615 189.114 118.004 189.808 116.725 191.194C115.445 192.571 114.806 194.28 114.806 196.321C114.806 198.392 115.436 200.105 116.695 201.463C117.955 202.811 119.576 203.484 121.559 203.484ZM144.352 189.451V207H139.752V189.451H134.508V185.555H149.625V189.451H144.352ZM162.062 198.841L159.659 191.912C159.591 191.707 159.503 191.355 159.396 190.857C159.288 190.359 159.176 189.749 159.059 189.026C158.932 189.72 158.81 190.345 158.692 190.901C158.575 191.448 158.487 191.814 158.429 192L156.114 198.841H162.062ZM148.409 207L156.568 185.555H161.812L170.089 207H164.874L163.131 202.444H154.825L153.331 207H148.409ZM187.857 207H182.569L176.93 196.98V207H172.345V185.555H178.907C181.515 185.555 183.468 186.062 184.767 187.078C186.065 188.084 186.715 189.603 186.715 191.634C186.715 193.108 186.271 194.368 185.382 195.413C184.493 196.458 183.346 197.068 181.939 197.244L187.857 207ZM176.93 194.695H177.618C179.474 194.695 180.699 194.495 181.295 194.095C181.891 193.685 182.188 192.977 182.188 191.971C182.188 190.916 181.866 190.169 181.222 189.729C180.587 189.28 179.386 189.056 177.618 189.056H176.93V194.695ZM190.538 207V185.555H203.165V189.422H195.123V193.831H203.165V197.728H195.123V203.104H203.165V207H190.538ZM216.993 207V185.555H221.578V207H216.993ZM226.485 207V185.555H231.07V203.104H238.395V207H226.485ZM258.521 189.451V207H253.922V189.451H248.678V185.555H263.795V189.451H258.521ZM285.211 185.555V198.899C285.211 201.81 284.444 203.982 282.911 205.418C281.378 206.854 279.068 207.571 275.982 207.571C272.848 207.571 270.514 206.854 268.98 205.418C267.447 203.982 266.681 201.81 266.681 198.899V185.555H271.236V198.182C271.236 199.949 271.627 201.282 272.408 202.181C273.189 203.069 274.356 203.514 275.909 203.514C277.472 203.514 278.653 203.064 279.454 202.166C280.255 201.268 280.655 199.939 280.655 198.182V185.555H285.211ZM311.93 196.321C311.93 197.854 311.642 199.305 311.065 200.672C310.499 202.039 309.679 203.24 308.604 204.275C307.491 205.34 306.236 206.155 304.84 206.722C303.443 207.288 301.998 207.571 300.504 207.571C299.195 207.571 297.911 207.352 296.651 206.912C295.401 206.463 294.254 205.823 293.209 204.993C291.861 203.919 290.826 202.635 290.104 201.141C289.391 199.646 289.034 198.04 289.034 196.321C289.034 194.778 289.317 193.333 289.884 191.985C290.45 190.628 291.28 189.422 292.374 188.367C293.448 187.322 294.693 186.512 296.109 185.936C297.535 185.359 299 185.071 300.504 185.071C301.998 185.071 303.448 185.359 304.854 185.936C306.271 186.512 307.521 187.322 308.604 188.367C309.688 189.422 310.514 190.628 311.08 191.985C311.646 193.343 311.93 194.788 311.93 196.321ZM300.504 203.484C302.447 203.484 304.049 202.806 305.309 201.448C306.578 200.081 307.213 198.372 307.213 196.321C307.213 194.29 306.573 192.581 305.294 191.194C304.015 189.808 302.418 189.114 300.504 189.114C298.561 189.114 296.949 189.808 295.67 191.194C294.391 192.571 293.751 194.28 293.751 196.321C293.751 198.392 294.381 200.105 295.641 201.463C296.9 202.811 298.521 203.484 300.504 203.484ZM330.475 207L322.55 185.555H327.618L331.793 198.929C331.871 199.202 331.993 199.71 332.159 200.452C332.325 201.194 332.501 202.039 332.687 202.986C332.813 202.068 332.95 201.253 333.097 200.54C333.253 199.827 333.404 199.241 333.551 198.782L337.784 185.555H342.794L334.811 207H330.475ZM345.108 207V185.555H357.735V189.422H349.693V193.831H357.735V197.728H349.693V203.104H357.735V207H345.108ZM362.335 207V185.555H366.92V207H362.335ZM389.098 191.136C388.17 190.306 387.218 189.7 386.241 189.319C385.265 188.929 384.22 188.733 383.106 188.733C380.821 188.733 379 189.417 377.643 190.784C376.285 192.151 375.606 193.987 375.606 196.292C375.606 198.548 376.236 200.34 377.496 201.668C378.756 202.986 380.475 203.646 382.652 203.646C383.893 203.646 385.045 203.44 386.109 203.03C387.174 202.61 388.16 201.985 389.068 201.155L389.039 205.857C388.062 206.434 387.037 206.863 385.963 207.146C384.898 207.43 383.775 207.571 382.594 207.571C379.176 207.571 376.368 206.512 374.171 204.393C371.983 202.264 370.89 199.563 370.89 196.292C370.89 193.03 371.988 190.34 374.186 188.221C376.383 186.102 379.215 185.042 382.682 185.042C383.844 185.042 384.967 185.164 386.051 185.408C387.135 185.652 388.204 186.028 389.259 186.536L389.098 191.136ZM415.318 196.321C415.318 197.854 415.03 199.305 414.454 200.672C413.888 202.039 413.067 203.24 411.993 204.275C410.88 205.34 409.625 206.155 408.229 206.722C406.832 207.288 405.387 207.571 403.893 207.571C402.584 207.571 401.3 207.352 400.04 206.912C398.79 206.463 397.643 205.823 396.598 204.993C395.25 203.919 394.215 202.635 393.492 201.141C392.779 199.646 392.423 198.04 392.423 196.321C392.423 194.778 392.706 193.333 393.272 191.985C393.839 190.628 394.669 189.422 395.763 188.367C396.837 187.322 398.082 186.512 399.498 185.936C400.924 185.359 402.389 185.071 403.893 185.071C405.387 185.071 406.837 185.359 408.243 185.936C409.659 186.512 410.909 187.322 411.993 188.367C413.077 189.422 413.902 190.628 414.469 191.985C415.035 193.343 415.318 194.788 415.318 196.321ZM403.893 203.484C405.836 203.484 407.438 202.806 408.697 201.448C409.967 200.081 410.602 198.372 410.602 196.321C410.602 194.29 409.962 192.581 408.683 191.194C407.403 189.808 405.807 189.114 403.893 189.114C401.949 189.114 400.338 189.808 399.059 191.194C397.779 192.571 397.14 194.28 397.14 196.321C397.14 198.392 397.77 200.105 399.029 201.463C400.289 202.811 401.91 203.484 403.893 203.484ZM419.2 207V185.555H423.785V203.104H431.109V207H419.2ZM454.869 196.321C454.869 197.854 454.581 199.305 454.005 200.672C453.438 202.039 452.618 203.24 451.544 204.275C450.431 205.34 449.176 206.155 447.779 206.722C446.383 207.288 444.938 207.571 443.443 207.571C442.135 207.571 440.851 207.352 439.591 206.912C438.341 206.463 437.193 205.823 436.148 204.993C434.801 203.919 433.766 202.635 433.043 201.141C432.33 199.646 431.974 198.04 431.974 196.321C431.974 194.778 432.257 193.333 432.823 191.985C433.39 190.628 434.22 189.422 435.313 188.367C436.388 187.322 437.633 186.512 439.049 185.936C440.475 185.359 441.939 185.071 443.443 185.071C444.938 185.071 446.388 185.359 447.794 185.936C449.21 186.512 450.46 187.322 451.544 188.367C452.628 189.422 453.453 190.628 454.02 191.985C454.586 193.343 454.869 194.788 454.869 196.321ZM443.443 203.484C445.387 203.484 446.988 202.806 448.248 201.448C449.518 200.081 450.152 198.372 450.152 196.321C450.152 194.29 449.513 192.581 448.233 191.194C446.954 189.808 445.357 189.114 443.443 189.114C441.5 189.114 439.889 189.808 438.609 191.194C437.33 192.571 436.69 194.28 436.69 196.321C436.69 198.392 437.32 200.105 438.58 201.463C439.84 202.811 441.461 203.484 443.443 203.484ZM459.293 200.306V185.071H463.453V200.306H459.293ZM458.868 205.052C458.868 204.358 459.112 203.772 459.601 203.294C460.089 202.806 460.685 202.562 461.388 202.562C462.081 202.562 462.667 202.801 463.146 203.279C463.634 203.758 463.878 204.349 463.878 205.052C463.878 205.755 463.634 206.351 463.146 206.839C462.667 207.327 462.081 207.571 461.388 207.571C460.694 207.571 460.099 207.322 459.601 206.824C459.112 206.326 458.868 205.735 458.868 205.052Z" fill="#FFFEFE"/>
</g>
<path d="M26.4991 90.0355C22.3967 86.0085 18.355 82.1028 14.392 78.1182C11.5318 75.2435 8.78681 72.2718 6.67199 68.7482C1.0729 59.3963 -0.95708 49.3712 0.412396 38.5637C1.63644 28.9025 5.80547 20.5513 12.4044 13.6981C20.2274 5.56522 29.9046 0.919593 41.43 0.112977C51.5496 -0.596603 60.6572 2.05977 68.965 7.42104C74.6247 11.072 79.1937 15.9724 82.6598 21.9037C85.9198 27.4894 87.9135 33.4814 88.7194 39.8009C89.5193 46.0719 88.7012 52.2883 86.8591 58.3713C84.4352 66.3768 79.7511 72.8419 73.8491 78.658C66.3291 86.0752 59.0939 93.7715 51.7132 101.328C49.7438 103.342 47.6593 105.246 45.6839 107.253C44.8477 108.103 44.1993 108.169 43.3388 107.284C40.6059 104.482 37.7215 101.819 35.0917 98.9265C30.4076 93.7714 31.4074 86.4391 35.7946 81.9027C42.7571 74.6977 49.9256 67.6929 57.0033 60.5971C58.6636 58.9293 60.227 57.1523 61.3723 55.0963C65.4746 47.764 65.0565 37.8845 59.0636 31.4376C52.7797 24.6875 42.9813 23.1834 35.0008 27.4166C29.6501 30.255 26.5052 34.8035 25.2993 40.2861C23.8147 47.0423 25.2084 53.5498 30.2076 58.8019C33.0132 61.7494 35.9582 64.5695 38.8244 67.4564C40.6847 69.3304 40.7635 69.7549 38.7396 71.6107C36.6611 73.5211 34.8129 75.6499 32.789 77.5845C29.638 80.5927 27.7595 84.0921 27.0687 88.3253C26.996 88.7862 26.8748 89.2411 26.7657 89.6959C26.7476 89.7748 26.6688 89.8233 26.4991 90.0355Z" fill="#3FD0CB"/>
<path d="M155.175 82.8124C152.358 84.838 149.449 86.3967 146.25 87.4641C143.22 88.4769 140.147 88.8165 137.015 88.6285C129.161 88.1676 122.459 84.9654 117.163 79.2523C112.37 74.0851 109.589 67.9294 109.068 60.7062C108.395 51.4028 111.522 43.5429 117.854 37.0778C122.35 32.4807 127.986 29.6909 134.579 28.7994C139.608 28.1201 144.365 28.6114 149.116 30.1882C150.776 30.7401 152.182 31.7287 153.733 32.4625C155.151 33.1357 155.387 32.8628 155.472 31.2738C155.775 25.5669 155.515 19.8538 155.745 14.1529C155.872 10.9689 158.514 8.48842 161.72 8.25189C163.12 8.14879 164.537 8.19125 165.943 8.21551C168.167 8.25796 168.634 8.71282 168.81 10.981C168.864 11.6846 168.84 12.3881 168.84 13.0977C168.84 36.3743 168.84 59.6449 168.84 82.9215C168.84 88.1312 168.791 88.1797 163.671 88.1797C161.871 88.1797 160.072 88.21 158.266 88.1676C155.993 88.1191 155.545 87.6217 155.606 85.3414C155.618 84.5772 155.836 83.7888 155.175 82.8124ZM139.154 41.6203C129.913 41.9478 121.75 48.1946 122.162 59.4872C122.465 67.7899 128.737 75.4679 139.184 75.3709C148.31 75.292 155.26 68.1902 155.478 58.9717C155.727 48.2613 147.649 42.1722 139.154 41.6203Z" fill="#3FD0CB"/>
<path d="M291.929 83.9889C291.335 84.935 291.553 85.8205 291.553 86.6574C291.535 91.6791 291.578 96.6947 291.535 101.716C291.505 106.053 289.166 108.375 284.845 108.442C283.355 108.466 281.87 108.418 280.379 108.436C279.016 108.454 278.331 107.848 278.38 106.453C278.398 105.828 278.374 105.197 278.374 104.573C278.374 81.4417 278.374 58.3046 278.374 35.1735C278.374 34.2334 278.38 33.2934 278.343 32.3533C278.253 29.7394 278.543 29.4119 281.252 29.3877C283.761 29.3634 286.269 29.3695 288.772 29.3877C291.263 29.4059 291.263 29.4241 291.602 31.9955C291.693 32.6869 291.796 33.3722 291.972 34.5852C299.904 27.8715 308.842 26.9618 318.07 30.0427C324.239 32.0986 329.384 36.0225 333.038 41.6143C340.564 53.1374 340.03 66.8195 331.456 77.4693C323.239 87.6824 308.732 93.1771 291.929 83.9889ZM324.918 58.438C325.596 49.2134 316.707 41.311 308.157 41.6507C298.607 42.0327 291.511 48.5221 291.699 59.281C291.856 68.2811 298.928 75.2011 308.096 75.4012C317.986 75.6256 325.39 67.147 324.918 58.438Z" fill="#3FD0CB"/>
<path d="M442.808 83.722C441.05 84.1769 439.863 85.2625 438.457 85.9539C433.373 88.4465 428.113 88.9681 422.484 88.3191C414.103 87.3609 407.571 83.4491 402.626 76.8567C397.36 69.8458 395.076 61.907 396.851 53.1858C398.833 43.464 404.038 35.9619 413.116 31.5346C423.435 26.5069 433.336 27.4833 442.868 33.7664C449.558 38.1755 453.467 44.4526 455.321 52.076C455.866 54.3321 456.084 56.6973 456.078 59.0626C456.054 67.056 456.072 75.0433 456.072 83.0367C456.072 88.4526 456.454 88.0462 451.025 88.2342C447.298 88.3677 444.777 86.7544 442.808 83.722ZM442.717 58.444C443.244 48.4796 434.058 41.2079 425.713 41.6749C415.412 42.251 409.013 50.1474 409.589 60.0512C410.025 67.6018 416.982 76.8324 428.907 75.1343C435.791 74.1518 443.414 66.3767 442.717 58.444Z" fill="#3FD0CB"/>
<path d="M270.393 58.8625C271.029 74.2792 257.074 88.586 240.986 88.7134C224.91 88.8407 210.227 74.3944 210.948 57.2129C211.566 42.4754 224.843 28.2353 240.998 28.3748C256.777 28.5082 271.151 42.1176 270.393 58.8625ZM240.434 41.6082C231.345 41.7113 223.788 48.4856 224.001 59.469C224.158 67.4987 230.624 75.3344 240.762 75.4436C250.499 75.5467 257.692 67.7171 257.613 57.88C257.547 49.7956 250.33 41.1958 240.434 41.6082Z" fill="#3FD0CB"/>
<path d="M345.969 58.82C346.805 45.9627 352.259 36.0771 364.523 30.8492C374.619 26.5433 384.217 27.6774 393.052 34.3062C395.264 35.9679 395.24 36.3379 393.349 38.3029C391.561 40.1648 389.574 41.8326 388.035 43.9371C387.332 44.8953 386.453 44.962 385.338 44.4829C383.126 43.5307 381.084 42.2268 378.612 41.8447C371.08 40.6742 364.051 44.9196 360.87 51.2573C358.385 56.2061 358.749 61.0458 360.857 65.746C363.73 72.1504 370.983 76.4746 378.315 75.2132C380.024 74.916 381.63 74.4733 383.236 73.7758C386.041 72.5447 388.78 72.86 391.028 75.1222C392.404 76.505 393.61 78.0575 394.961 79.4646C395.949 80.4956 395.27 81.1203 394.561 81.7995C391.901 84.3528 388.647 85.869 385.247 87.1001C378.709 89.4715 372.025 89.1986 365.681 86.9C359.239 84.5711 354.034 80.2469 350.435 74.2489C347.605 69.5244 345.969 64.4421 345.969 58.82Z" fill="#3FD0CB"/>
<path d="M191.727 34.2879C192.8 33.3539 193.666 32.5777 194.551 31.8317C199.205 27.9199 204.598 28.0412 210.13 28.9812C211.451 29.2056 211.76 30.1214 211.469 31.2555C210.645 34.4517 209.161 37.4113 208.076 40.5165C207.767 41.3958 207.015 41.6081 206.149 41.3959C204.761 41.0562 203.349 41.1108 201.937 41.1533C196.114 41.3352 192.594 45.9081 191.872 50.5901C191.46 53.2343 191.382 55.8846 191.394 58.5531C191.424 65.9218 191.43 73.2906 191.388 80.6532C191.363 85.0623 189.455 87.2396 185.116 87.9916C184.886 88.0341 184.655 88.0826 184.419 88.1129C178.711 88.8103 178.232 88.3919 178.232 82.7638C178.232 66.3039 178.232 49.8441 178.232 33.3843C178.232 29.3936 178.232 29.3936 182.322 29.3876C184.595 29.3876 186.867 29.43 189.133 29.3754C190.539 29.3391 191.369 29.6908 191.291 31.3344C191.26 32.2259 191.551 33.1417 191.727 34.2879Z" fill="#3FD0CB"/>
<path d="M478.16 34.4274C479.232 33.4935 480.099 32.7172 480.983 31.9712C485.637 28.0594 491.03 28.1807 496.563 29.1208C497.884 29.3452 498.193 30.2609 497.902 31.3951C497.078 34.5912 495.593 37.5508 494.509 40.656C494.2 41.5354 493.448 41.7476 492.582 41.5354C491.194 41.1957 489.782 41.2503 488.37 41.2928C482.547 41.4747 479.026 46.0476 478.305 50.7296C477.893 53.3738 477.814 56.0241 477.826 58.6927C477.857 66.0614 477.863 73.4301 477.82 80.7927C477.796 85.2018 475.887 87.3791 471.549 88.1311C471.318 88.1736 471.088 88.2221 470.852 88.2524C465.144 88.9499 464.665 88.5314 464.665 82.9033C464.665 66.4434 464.665 49.9836 464.665 33.5238C464.665 29.5332 464.665 29.5332 468.755 29.5271C471.028 29.5271 473.3 29.5696 475.566 29.515C476.972 29.4786 477.802 29.8303 477.723 31.4739C477.693 32.3715 477.984 33.2873 478.16 34.4274Z" fill="#3FD0CB"/>
<defs>
<filter id="filter0_d" x="29.9756" y="149.071" width="437.902" height="66.5" filterUnits="userSpaceOnUse" color-interpolation-filters="sRGB">
<feFlood flood-opacity="0" result="BackgroundImageFix"/>
<feColorMatrix in="SourceAlpha" type="matrix" values="0 0 0 0 0 0 0 0 0 0 0 0 0 0 0 0 0 0 127 0"/>
<feOffset dy="4"/>
<feGaussianBlur stdDeviation="2"/>
<feColorMatrix type="matrix" values="0 0 0 0 0 0 0 0 0 0 0 0 0 0 0 0 0 0 0.25 0"/>
<feBlend mode="normal" in2="BackgroundImageFix" result="effect1_dropShadow"/>
<feBlend mode="normal" in="SourceGraphic" in2="effect1_dropShadow" result="shape"/>
</filter>
</defs>
</svg>
